<?xml version="1.0" encoding="UTF-8" standalone="no"?>
<!-- Created with Inkscape (http://www.inkscape.org/) -->

<svg
   xmlns:dc="http://purl.org/dc/elements/1.1/"
   xmlns:cc="http://creativecommons.org/ns#"
   xmlns:rdf="http://www.w3.org/1999/02/22-rdf-syntax-ns#"
   xmlns:svg="http://www.w3.org/2000/svg"
   xmlns="http://www.w3.org/2000/svg"
   xmlns:xlink="http://www.w3.org/1999/xlink"
   xmlns:sodipodi="http://sodipodi.sourceforge.net/DTD/sodipodi-0.dtd"
   xmlns:inkscape="http://www.inkscape.org/namespaces/inkscape"
   width="744.09448819"
   height="1052.3622047"
   id="svg3872"
   version="1.1"
   inkscape:version="0.48.4 r9939"
   sodipodi:docname="cheeseburger.svg"
   inkscape:export-filename="/var/www/datalets/sodacamp/images/cheeseburger.png"
   inkscape:export-xdpi="175.38"
   inkscape:export-ydpi="175.38">
  <defs
     id="defs3874" />
  <sodipodi:namedview
     id="base"
     pagecolor="#ffffff"
     bordercolor="#666666"
     borderopacity="1.0"
     inkscape:pageopacity="0.0"
     inkscape:pageshadow="2"
     inkscape:zoom="2.8"
     inkscape:cx="267.8293"
     inkscape:cy="790.07467"
     inkscape:document-units="px"
     inkscape:current-layer="layer1"
     showgrid="false" />
  <metadata
     id="metadata3877">
    <rdf:RDF>
      <cc:Work
         rdf:about="">
        <dc:format>image/svg+xml</dc:format>
        <dc:type
           rdf:resource="http://purl.org/dc/dcmitype/StillImage" />
        <dc:title></dc:title>
      </cc:Work>
    </rdf:RDF>
  </metadata>
  <g
     inkscape:label="Layer 1"
     inkscape:groupmode="layer"
     id="layer1">
    <image
       y="175.93361"
       x="135.18797"
       id="image3888"
       xlink:href="file:///var/www/datalets/sodacamp/images/Saladeaula_itapevi_CROP.jpg"
       height="227.14285"
       width="478.1955"
       style="fill:#ffff99" />
    <path
       style="color:#000000;fill:#ffff99;fill-opacity:1;fill-rule:nonzero;stroke:none;stroke-width:6.30000019000000044;marker:none;visibility:visible;display:inline;overflow:visible;enable-background:accumulate;opacity:0.73020001"
       id="path3893"
       d="m 179.00968,258.05853 c -0.005,-0.11895 -0.0145,-0.2378 -0.0138,-0.35684 0.005,-0.82774 0.0701,-1.65658 0.0958,-2.48374 0.0366,-1.17908 0.0265,-1.11867 0.0227,-2.31032 -0.0594,-1.29238 -0.21419,-2.58549 -0.48915,-3.85065 -0.0906,-0.41675 -0.17416,-0.69093 -0.28771,-1.09127 -0.138,-0.47155 -0.2502,-0.95023 -0.27046,-1.44292 -0.0377,-0.91711 0.0399,0.24741 -0.0158,-0.52779 -0.089,-0.47038 -0.21775,-0.9325 -0.3219,-1.40005 -0.0493,-0.35604 0.10001,-0.64473 0.48169,-0.73056 0.18794,-0.0423 0.38523,-0.01 0.57784,-0.007 0.33631,0.005 0.67201,0.0304 1.00811,0.0432 1.15751,0.10531 2.30703,0.30674 3.43566,0.58394 0.78227,0.19213 1.19114,0.32606 1.96254,0.55823 1.1646,0.39013 2.34048,0.79038 3.43118,1.36358 0.57749,0.30348 0.69489,0.40896 1.21553,0.7731 0.66094,0.52837 1.22964,1.1754 1.51545,1.98542 0.17789,0.50414 0.18248,0.79746 0.24554,1.32643 0.0452,1.03309 -0.0487,2.06821 -0.42207,3.04063 -0.29705,0.77359 -0.46832,0.98165 -0.90159,1.69571 -0.93223,1.38549 -2.14833,2.54024 -3.53682,3.46157 -0.23288,0.15453 -0.47613,0.29283 -0.71419,0.43924 -0.87577,0.48629 -1.83377,0.82429 -2.82596,0.97394 -0.57524,0.0868 -0.83579,0.0723 -1.41459,0.0826 -1.05325,-0.0583 -2.18484,-0.12866 -3.19646,-0.46202 -0.17083,-0.0563 -0.33527,-0.13038 -0.5029,-0.19557 -0.64268,-0.31948 -1.314,-0.6889 -1.75897,-1.27216 -0.061,-0.0799 -0.10598,-0.17087 -0.15897,-0.2563 -0.033,-0.0563 0.7635,-0.52308 0.79651,-0.46676 l 0,0 c 0.46248,0.49162 1.03483,0.86353 1.66659,1.10103 0.14102,0.0484 0.27959,0.10461 0.42306,0.14516 0.79564,0.22488 1.6315,0.22609 2.44795,0.30959 0.20923,0.003 0.41852,0.0164 0.6277,0.0104 1.09045,-0.0313 2.15432,-0.32158 3.0995,-0.8674 0.21378,-0.13999 0.4323,-0.27299 0.64134,-0.41996 1.25121,-0.87969 2.37424,-1.93352 3.28352,-3.16614 0.38378,-0.56369 0.59454,-0.81804 0.87283,-1.43336 0.37552,-0.83032 0.47165,-1.72731 0.46509,-2.62895 -0.031,-0.42978 -0.0171,-0.63513 -0.15139,-1.04001 -0.21822,-0.65779 -0.69974,-1.14205 -1.25589,-1.53068 -0.17421,-0.10458 -0.34375,-0.21735 -0.52262,-0.31374 -0.48493,-0.26131 -0.82905,-0.3922 -1.35001,-0.59449 -0.86816,-0.3371 -1.74661,-0.64899 -2.63889,-0.91644 -1.69059,-0.50559 -3.39771,-0.95958 -5.13732,-1.26477 -0.18532,-0.0314 -0.37096,-0.061 -0.55598,-0.0942 -0.13109,-0.0235 -0.26639,-0.0323 -0.39231,-0.0757 -0.0178,-0.006 0.007,-0.037 0.0124,-0.0551 0.0167,-0.0582 0.0424,-0.11405 0.0535,-0.17358 0.0129,-0.0697 -0.001,-0.14366 0.0178,-0.21185 0.007,-0.0238 0.0147,0.0472 0.0221,0.0707 0.18346,0.50188 0.32194,1.02373 0.38444,1.55499 0.0194,0.25664 0.0214,0.51887 0.0616,0.77346 0.0529,0.33481 0.1762,0.64995 0.31533,0.9574 0.69556,1.67127 1.11323,3.42838 1.15217,5.24538 -0.005,0.40737 0.001,0.81506 -0.0159,1.2221 -0.0572,1.35166 -0.25048,2.70027 -0.61524,4.00378 -0.006,0.0614 -0.87421,-0.0196 -0.86849,-0.081 z"
       inkscape:connector-curvature="0" />
    <path
       style="color:#000000;fill:#ffff99;fill-opacity:1;fill-rule:nonzero;stroke:none;stroke-width:6.30000019000000044;marker:none;visibility:visible;display:inline;overflow:visible;enable-background:accumulate;opacity:0.73020001"
       id="path3895"
       d="m 198.99011,252.00071 c 0.0918,-0.36545 0.22986,-0.76009 0.10319,-1.13589 -0.018,-0.0534 -0.0558,-0.0979 -0.0837,-0.1468 -0.1272,-0.0698 -0.2911,-0.0834 -0.42857,-0.0236 -0.0123,0.005 0.0173,0.0352 0.005,0.0399 -0.0849,0.0322 -0.17783,0.037 -0.26591,0.059 -0.096,0.024 -0.19074,0.0528 -0.28611,0.0792 -0.29513,0.0882 -0.61575,0.14954 -0.87972,0.31936 -0.38315,0.24649 -0.64094,0.63923 -0.90403,0.99821 -0.5405,0.87073 -1.03484,1.78756 -1.36107,2.76302 -0.0428,0.12787 -0.0731,0.25957 -0.10965,0.38935 -0.0449,0.20693 -0.0777,0.2949 -0.0802,0.4923 -4.7e-4,0.0373 0.005,0.0746 0.0121,0.11125 0.002,0.0101 0.0154,0.0376 0.0144,0.0274 -0.009,-0.0913 -0.0425,-0.0521 0.004,-0.0902 0.10714,-0.0682 -0.0893,0.0675 -0.1301,-0.0614 -0.0143,-0.0452 0.0935,-0.0159 0.13978,-0.0259 0.0688,-0.0149 0.13722,-0.0316 0.20548,-0.0489 0.15039,-0.038 0.39345,-0.10571 0.53885,-0.14565 1.04373,-0.35028 1.90652,-1.0457 2.73613,-1.74531 0.47358,-0.43736 0.96559,-0.85551 1.4292,-1.30371 0.19069,-0.18434 0.38443,-0.37404 0.53204,-0.59544 0.0457,0.31069 -0.21921,-0.11379 -0.15867,0.0473 0.17659,-0.0214 0.3519,-0.0666 0.52976,-0.0641 0.0293,4.1e-4 0.0447,0.0435 0.0503,0.0723 0.0209,0.10588 0.0186,0.21503 0.0275,0.32257 0.042,0.50971 0.0756,1.01775 0.13241,1.52614 0.11205,0.56571 0.20636,1.30643 0.76738,1.62621 0.0483,0.0275 0.10653,0.0314 0.1598,0.0471 0.0386,-0.0109 0.10023,0.004 0.11581,-0.0328 0.0122,-0.0289 -0.11125,-0.0175 -0.0865,-0.0368 0.0686,-0.0533 0.164,-0.0577 0.24585,-0.087 0.46029,-0.16477 0.25417,-0.0859 0.74488,-0.29511 0.0622,-0.0381 0.60142,0.84171 0.53921,0.87984 l 0,0 c -1.00006,0.32322 0.003,0.008 -0.81132,0.24341 -0.38847,0.11252 -0.43494,0.17143 -0.91332,0.17366 -0.12274,5.8e-4 -0.24148,-0.0441 -0.36222,-0.0662 -0.11667,-0.0581 -0.24163,-0.10181 -0.35003,-0.17416 -0.72492,-0.48386 -0.98397,-1.37675 -1.12516,-2.18533 -0.0185,-0.1949 -0.0448,-0.38922 -0.0555,-0.58471 -0.0149,-0.27409 -0.008,-0.77669 0.013,-1.05742 0.007,-0.0999 0.0605,-0.7133 0.16778,-0.799 0.17978,-0.14365 0.43353,-0.15449 0.6503,-0.23173 0.30214,0.16778 0.54244,0.36823 0.58393,0.74213 0.009,0.0825 -0.0125,0.16555 -0.0188,0.24833 -0.0835,0.23789 -0.10051,0.32347 -0.24294,0.55096 -0.44294,0.70748 -1.09867,1.25883 -1.69667,1.82726 -0.47079,0.37942 -0.71462,0.5973 -1.22049,0.92264 -0.6069,0.39031 -1.26983,0.6886 -1.96281,0.88767 -0.2706,0.0607 -0.54031,0.10963 -0.81325,0.15764 -0.0736,0.0129 -0.14573,0.0382 -0.22039,0.0405 -0.15576,0.005 -0.31258,10e-4 -0.46714,-0.0188 -0.0597,-0.008 -0.11268,-0.0422 -0.16902,-0.0632 -0.0512,-0.0336 -0.10844,-0.0594 -0.15347,-0.10091 -0.36708,-0.33818 -0.34774,-0.86258 -0.30957,-1.31911 0.0279,-0.16185 0.0466,-0.32557 0.0838,-0.48554 0.25895,-1.11328 0.79912,-2.13263 1.45936,-3.05728 0.13737,-0.17039 0.26352,-0.35049 0.41212,-0.51119 0.51321,-0.55494 1.11799,-0.92151 1.85634,-1.07591 0.12164,-0.037 0.54934,-0.17186 0.6672,-0.18766 0.46911,-0.0629 0.96469,-0.0859 1.3594,0.22517 0.1092,0.0861 0.18579,0.20692 0.27869,0.31038 0.0533,0.12178 0.12417,0.23731 0.15998,0.36534 0.15041,0.53782 -0.0125,1.1101 -0.26781,1.58566 -0.0229,0.0559 -0.8134,-0.26854 -0.79046,-0.32443 z"
       inkscape:connector-curvature="0" />
    <path
       style="color:#000000;fill:#ffff99;fill-opacity:1;fill-rule:nonzero;stroke:none;stroke-width:6.30000019000000044;marker:none;visibility:visible;display:inline;overflow:visible;enable-background:accumulate;opacity:0.73020001"
       id="path3897"
       d="m 207.89641,245.68143 c 0.17336,1.18203 0.12785,2.37763 0.0524,3.56506 -0.11178,1.24385 -0.25526,2.48383 -0.32065,3.73138 -0.01,0.45609 0.0255,0.91097 0.0307,1.36686 -0.0204,0.35684 0.0415,0.44718 0.2683,0.70477 0.16503,0.16763 0.35385,0.36228 0.60025,0.3908 0.027,-0.009 0.054,-0.0184 0.081,-0.0276 -0.0271,-0.006 -0.10743,-0.008 -0.0813,-0.0172 0.0676,-0.0239 0.14201,-0.0194 0.21298,-0.0293 0.32245,-0.0451 0.64247,-0.0785 0.9672,-0.10299 0.60091,-0.0694 1.24704,0.0381 1.84025,-0.0808 0.11691,-0.0234 0.22843,-0.0685 0.34264,-0.10271 0.41509,-0.21463 0.22828,-0.0818 0.56254,-0.3955 0.0461,-0.0561 0.83914,0.59519 0.79309,0.65127 l 0,0 c -0.53732,0.50206 -0.24648,0.29208 -0.86714,0.63736 -0.16251,0.0503 -0.3215,0.11388 -0.48752,0.15102 -0.62104,0.1389 -1.267,0.0199 -1.89549,0.0701 -0.3194,0.0131 -0.63893,0.0255 -0.95823,0.041 -0.23773,0.0116 -0.44537,0.0324 -0.69002,0.0163 -0.075,-0.005 -0.14718,-0.0305 -0.22076,-0.0458 -0.38369,-0.13377 -0.71325,-0.36148 -0.96824,-0.68123 -0.26423,-0.37205 -0.40085,-0.69273 -0.38165,-1.15571 -0.0258,-0.46147 -0.11727,-0.91632 -0.14966,-1.37747 -0.10062,-1.27508 -0.007,-2.55377 0.11412,-3.82458 0.11023,-1.16084 0.17054,-2.32576 0.29095,-3.48502 0,-0.0611 0.86425,-0.0611 0.86425,0 z"
       inkscape:connector-curvature="0" />
    <path
       style="color:#000000;fill:#ffff99;fill-opacity:1;fill-rule:nonzero;stroke:none;stroke-width:6.30000019000000044;marker:none;visibility:visible;display:inline;overflow:visible;enable-background:accumulate;opacity:0.73020001"
       id="path3899"
       d="m 204.79703,250.3969 c 1.68893,-0.2052 3.39512,-0.22014 5.09426,-0.23831 1.68609,0.0133 3.37773,0.003 5.05757,0.16835 0.0949,0.0133 0.19019,0.0238 0.28465,0.0398 0.0494,0.008 0.18216,-0.002 0.14666,0.0334 -0.0495,0.0493 -0.144,-0.001 -0.2077,0.0274 -0.43223,0.19414 -0.008,0.0604 -0.21803,0.24384 -0.0111,0.01 -0.0166,-0.0242 -0.025,-0.0363 -0.0113,-0.0598 0.83447,-0.22027 0.84581,-0.16046 l 0,0 c 0.0388,0.27933 0.0451,0.56208 -0.25788,0.71992 -0.0654,0.0341 -0.71676,0.11128 -0.82507,0.13136 -1.7092,0.1603 -3.4289,0.15761 -5.14402,0.16835 -1.65818,-0.0178 -3.32461,-0.0284 -4.97189,-0.23831 -0.0607,-0.0156 0.15984,-0.87473 0.22059,-0.85913 z"
       inkscape:connector-curvature="0" />
    <path
       style="color:#000000;fill:#ffff99;fill-opacity:1;fill-rule:nonzero;stroke:none;stroke-width:6.30000019000000044;marker:none;visibility:visible;display:inline;overflow:visible;enable-background:accumulate;opacity:0.73020001"
       id="path3901"
       d="m 221.40632,250.96981 c -0.44627,0.0348 -0.89343,0.0626 -1.33433,0.14355 -0.19944,0.0605 -0.31482,0.0868 -0.50639,0.18378 -0.0979,0.0496 -0.18946,0.11078 -0.28329,0.16766 -0.35814,0.21709 -0.70126,0.45269 -1.04557,0.69083 -0.46475,0.34302 -0.9453,0.66015 -1.45899,0.92441 -0.36071,0.1472 -0.4283,0.37341 -0.59274,0.71512 -0.18781,0.4422 -0.43437,0.86287 -0.5373,1.33581 -0.0124,0.0861 -0.0215,0.13552 -0.0271,0.21859 -0.002,0.0229 0.003,0.0888 0.0124,0.0678 0.0269,-0.0599 -0.0345,-0.0451 0.0488,-0.0447 0.25493,0.16114 0.51921,0.27814 0.8201,0.31182 0.0349,-0.001 0.10754,0.0311 0.10467,-0.004 -0.003,-0.0353 -0.12535,0.0202 -0.10574,-0.009 0.0221,-0.0332 0.0797,-0.006 0.11933,-0.0112 0.15554,-0.021 0.30992,-0.0552 0.46495,-0.0799 0.37001,-0.0643 0.74626,-0.0323 1.1191,-0.0396 0.004,-7e-5 -0.007,-0.009 -0.004,-0.01 0.0601,-0.0162 0.1218,-0.0255 0.1827,-0.0383 0.54774,-0.18086 0.90373,-0.64079 1.2311,-1.08919 0.32707,-0.5401 0.62253,-1.09794 0.92764,-1.65039 0.13315,-0.27977 0.18902,-0.58647 0.18934,-0.89447 -0.009,-0.16792 -0.0174,-0.33615 -0.0314,-0.50375 -0.002,-0.0207 -0.0221,-0.0773 -0.008,-0.0618 0.0702,0.0784 0.079,0.24189 0.18314,0.25723 0.20087,0.0296 0.39472,-0.0954 0.59209,-0.14307 0.0688,0.68275 0.0383,1.37165 0.0811,2.05562 0.0105,0.16847 0.0343,0.33584 0.0515,0.50377 0.0355,0.14068 0.0548,0.28651 0.10663,0.42204 0.11926,0.31192 0.36021,0.61941 0.66002,0.77564 0.22975,0.11972 0.35507,0.11519 0.60537,0.14975 0.10721,0.002 0.21447,0.0104 0.32164,0.007 0.0262,-9.4e-4 0.0499,-0.017 0.0759,-0.0208 0.10989,-0.0163 0.22098,-0.0234 0.33092,-0.0394 0.34164,-0.0495 0.68156,-0.11833 1.02113,-0.18014 0.32881,-0.0705 0.66906,-0.18876 0.9133,-0.43248 0.0594,-0.0593 0.10533,-0.13068 0.15799,-0.19601 0.0375,-0.0571 0.84561,0.47282 0.80813,0.52997 l 0,0 c -0.0874,0.10401 -0.16638,0.21569 -0.26216,0.31202 -0.33562,0.33753 -0.77776,0.5322 -1.22392,0.67439 -0.84147,0.18271 -1.69925,0.38774 -2.56414,0.25275 -0.42899,-0.11899 -0.52936,-0.11057 -0.90842,-0.36387 -0.62656,-0.41867 -0.96717,-1.07508 -1.11219,-1.79866 -0.02,-0.19479 -0.0498,-0.38883 -0.0599,-0.58438 -0.01,-0.18655 -0.002,-0.37361 7e-4,-0.56039 0.008,-0.57063 0.0184,-1.15014 0.15854,-1.70649 0.21886,-0.12277 0.40681,-0.3441 0.65658,-0.36831 0.33355,-0.0323 0.33471,0.86068 0.33652,1.03389 -0.0134,0.41888 -0.0795,0.82809 -0.23016,1.22174 -0.11007,0.25718 -0.21344,0.52148 -0.33722,0.77225 -0.17418,0.35286 -0.38258,0.68988 -0.58791,1.0249 -0.076,0.10876 -0.14616,0.22181 -0.22797,0.32626 -0.38287,0.48886 -0.86559,0.8962 -1.45012,1.11715 -0.1116,0.0285 -0.2203,0.073 -0.3348,0.0856 -0.40234,0.0441 -0.69108,-0.0253 -1.06055,-0.013 -0.41341,0.0355 -0.81672,0.17848 -1.23705,0.0986 -0.42422,-0.0915 -0.78349,-0.26588 -1.11126,-0.55289 -0.0456,-0.0501 -0.0977,-0.0951 -0.13679,-0.15046 -0.16153,-0.22881 -0.16117,-0.50776 -0.14485,-0.77523 0.0531,-0.57149 0.28391,-1.09966 0.55255,-1.60216 0.22685,-0.4134 0.48166,-0.82129 0.91278,-1.04634 0.15998,-0.0901 0.32215,-0.18395 0.46829,-0.29571 0.28376,-0.21702 0.53976,-0.47044 0.83697,-0.67063 0.67835,-0.46522 1.36855,-0.93425 2.165,-1.17273 0.49135,-0.0903 0.99718,-0.14908 1.49637,-0.0928 0.0582,-0.0149 0.26931,0.80747 0.21116,0.8224 z"
       inkscape:connector-curvature="0" />
    <path
       style="color:#000000;fill:#ffff99;fill-opacity:1;fill-rule:nonzero;stroke:none;stroke-width:6.30000019000000044;marker:none;visibility:visible;display:inline;overflow:visible;enable-background:accumulate;opacity:0.73020001"
       id="path3903"
       d="m 244.20981,249.79977 c 0.14762,1.19519 0.13568,2.40264 0.21335,3.60329 0.0481,0.34249 0.063,0.73717 0.24502,1.04703 0.0316,0.0538 0.077,0.0983 0.11185,0.15009 0.0438,0.0718 -0.972,0.6911 -1.01579,0.61928 l 0,0 c -0.44744,-0.46735 -0.66824,-1.06905 -0.77402,-1.70134 -0.15307,-1.23449 -0.19312,-2.4832 -0.0134,-3.71835 0,-0.0872 1.23295,-0.0872 1.23295,0 z"
       inkscape:connector-curvature="0" />
    <path
       style="color:#000000;fill:#ffff99;fill-opacity:1;fill-rule:nonzero;stroke:none;stroke-width:6.30000019000000044;marker:none;visibility:visible;display:inline;overflow:visible;enable-background:accumulate;opacity:0.73020001"
       id="path3905"
       d="m 240.76228,251.91664 c 1.41824,-0.20925 2.85614,-0.005 4.2523,0.26074 0.58469,0.11403 1.15173,0.29936 1.72837,0.44469 0.0927,0.0233 0.1861,0.0444 0.28047,0.0594 0.0531,0.008 0.21203,-0.006 0.16099,0.011 -0.0724,0.0241 -0.15237,0.008 -0.22855,0.0115 0.043,-0.008 -7e-4,0.0362 0.0126,0.0382 0.0659,0.0102 0.10681,-0.0805 0.15447,-0.12719 0.0578,-0.0616 0.92871,0.75585 0.87091,0.81743 l 0,0 c -0.20958,0.11741 -0.35235,0.34147 -0.59882,0.40484 -0.18172,0.0188 -0.36289,0.044 -0.54516,0.0564 -0.80261,0.0546 -1.64433,-0.20143 -2.43403,-0.28901 -1.3139,-0.20953 -2.63299,-0.37944 -3.95746,-0.50424 -0.0837,-0.0215 0.22025,-1.20532 0.30395,-1.18382 z"
       inkscape:connector-curvature="0" />
    <path
       style="color:#000000;fill:#ffff99;fill-opacity:1;fill-rule:nonzero;stroke:none;stroke-width:6.30000019000000044;marker:none;visibility:visible;display:inline;overflow:visible;enable-background:accumulate;opacity:0.73020001"
       id="path3909"
       d="m 260.19258,258.86119 c 0.11731,-1.23447 0.66428,-2.35683 1.23108,-3.43956 0.53984,-0.96145 1.17688,-1.86385 1.74072,-2.81055 0.2637,-0.44277 0.45257,-0.80908 0.69387,-1.26147 0.3771,-0.74412 0.62141,-1.54344 0.94339,-2.31046 0.18279,-0.43545 0.26407,-0.58147 0.47504,-1.00528 0.0897,-0.1612 0.17314,-0.3261 0.26924,-0.48359 0.10228,-0.16764 0.4266,-0.62499 0.54266,-0.79628 0.2342,-0.34567 0.45999,-0.69682 0.69485,-1.04208 0.28374,-0.38414 0.55582,-0.7745 0.82316,-1.16969 0.084,-0.0826 0.15707,-0.17815 0.25208,-0.24788 0.40743,-0.29906 0.9532,-0.30532 1.38661,-0.0666 0.40076,0.22074 0.4592,0.35951 0.75969,0.7128 0.67252,1.00597 0.94221,2.18003 1.22783,3.33584 0.26455,0.97963 0.39215,1.98727 0.66077,2.96514 0.1916,0.54661 0.27207,1.13796 0.57913,1.6372 0.21475,0.32766 0.2805,0.70973 0.30425,1.09346 10e-4,0.39025 -0.0244,0.77914 -0.0335,1.16916 0.008,0.46124 0.0117,0.9224 0.003,1.38375 0.0451,0.21325 0.0638,0.4391 0.12118,0.64971 0.0305,0.11192 0.0879,0.21469 0.13059,0.32255 0.13148,0.3213 0.21484,0.65417 0.18373,1.00172 -0.002,0.084 -1.18944,0.0565 -1.1875,-0.0275 l 0,0 c -0.0475,-0.20667 -0.0776,-0.4128 -0.18756,-0.60242 -0.15578,-0.43007 -0.23184,-0.87697 -0.29586,-1.32912 -0.0224,-0.47694 -0.034,-0.95425 -0.007,-1.43133 0.0142,-0.36303 0.049,-0.7253 0.0527,-1.08871 -0.007,-0.30367 0.009,-0.33957 -0.19026,-0.58259 -0.36646,-0.58424 -0.60924,-1.22825 -0.80499,-1.88825 -0.27618,-0.98983 -0.44594,-2.00308 -0.72312,-2.99314 -0.23224,-0.99719 -0.4854,-1.99548 -0.97634,-2.90313 -0.0529,-0.0803 -0.0989,-0.1656 -0.15873,-0.24094 -0.0366,-0.0461 -0.0825,-0.0846 -0.12866,-0.12117 -0.0131,-0.0104 -0.062,-0.0111 -0.0468,-0.0178 0.0794,-0.0351 0.17402,-0.0306 0.25033,-0.072 0.0367,-0.0199 -0.14211,-0.0253 -0.10538,-0.0678 -0.10431,0.14801 -0.17351,0.29853 -0.26041,0.45703 -0.1396,0.2546 -0.31359,0.4902 -0.45454,0.74403 -0.4675,0.74233 -0.95719,1.47074 -1.39353,2.23209 -0.0728,0.14245 -0.15295,0.28139 -0.21847,0.42734 -0.42748,0.95216 -0.63729,1.99436 -1.11186,2.92854 -0.32767,0.67782 -0.32017,0.68743 -0.69671,1.36028 -0.53124,0.9493 -1.15414,1.84245 -1.72473,2.76797 -0.34937,0.5928 -0.68147,1.18977 -0.95895,1.82058 -0.21188,0.48166 -0.17404,0.46852 -0.36231,0.92445 -0.0326,0.0789 -0.0723,0.15456 -0.10852,0.23184 -0.0118,0.0842 -1.20187,-0.082 -1.19012,-0.16616 z"
       inkscape:connector-curvature="0" />
    <path
       style="color:#000000;fill:#ffff99;fill-opacity:1;fill-rule:nonzero;stroke:none;stroke-width:6.30000019000000044;marker:none;visibility:visible;display:inline;overflow:visible;enable-background:accumulate;opacity:0.73020001"
       id="path3911"
       d="m 261.6363,251.56301 c 1.05902,0.37093 2.084,0.83649 3.14867,1.19352 0.28314,0.0949 0.57111,0.17486 0.85667,0.26228 0.29285,0.0625 0.58505,0.12815 0.87856,0.18748 0.67977,0.13739 1.0414,0.21274 1.72873,0.26892 0.6569,0.0537 1.30201,0.0318 1.95905,0.0141 0.19499,-0.02 0.38999,-0.0401 0.58498,-0.0601 0.0952,-0.0393 0.65152,1.30675 0.55634,1.34609 l 0,0 c -0.23096,0.0519 -0.46191,0.10384 -0.69286,0.15576 -0.26038,0.0236 -0.51991,0.0601 -0.78113,0.0707 -1.69992,0.0694 -3.39245,-0.11084 -5.02562,-0.59828 -1.35205,-0.47823 -2.70439,-1.01115 -3.89255,-1.82925 -0.0715,-0.048 0.60766,-1.05922 0.67916,-1.0112 z"
       inkscape:connector-curvature="0" />
    <path
       style="color:#000000;fill:#ffff99;fill-opacity:1;fill-rule:nonzero;stroke:none;stroke-width:6.30000019000000044;marker:none;visibility:visible;display:inline;overflow:visible;enable-background:accumulate;opacity:0.73020001"
       id="path3913"
       d="m 277.68447,252.49222 c 0.16628,0.85998 0.35643,1.71401 0.531,2.57245 0.0888,0.45212 0.11048,0.9121 0.10316,1.37128 -0.035,0.241 -0.0337,0.48277 -0.0353,0.72567 0.10511,0.55676 0.23589,0.46686 -1.05597,0.15047 -0.055,-0.0135 -0.0113,-0.11269 -0.013,-0.16924 -0.003,-0.0948 -4.3e-4,-0.18975 -6.4e-4,-0.28462 -0.002,-0.46365 -0.042,-0.92261 0.0847,-1.37587 0.0686,-0.24564 0.12996,-0.33651 0.24368,-0.55046 0.26845,-0.40587 0.60689,-0.75802 0.94217,-1.1083 0.40316,-0.45774 0.92581,-0.74438 1.46091,-1.016 0.47411,-0.2335 0.96524,-0.41478 1.49154,-0.4741 0.17484,0.002 0.34967,0.008 0.52453,0.007 0.0528,-3.9e-4 -0.10608,-4e-4 -0.15809,-0.009 -0.03,-0.005 0.0611,0.002 0.0913,-0.002 0.19385,-0.0279 0.38654,-0.0916 0.57813,-0.13233 0.35698,-0.0903 0.69186,-0.0587 1.05996,-0.0438 0.0823,0.028 -0.31318,1.19201 -0.39549,1.16405 l 0,0 c 0.53276,-0.0278 -0.0962,0.001 -0.16485,0.0158 -0.10473,0.0187 -0.29726,0.052 -0.39972,0.0745 -0.0718,0.0158 -0.40313,0.1024 -0.46572,0.10607 -0.16589,0.01 -0.33261,0.001 -0.49843,-0.009 -0.0681,-0.004 0.13628,-0.006 0.20443,-0.01 -0.40325,-0.003 -0.7763,0.19068 -1.13366,0.35581 -0.44541,0.18019 -0.86949,0.40359 -1.20321,0.75798 -0.16239,0.14804 -0.32836,0.29606 -0.47938,0.45601 -0.36506,0.38662 0.14159,-0.12942 -0.23677,0.28093 -0.0222,0.0241 -0.0496,0.0429 -0.0744,0.0644 -0.0723,0.15454 -0.15283,0.32116 -0.17023,0.49361 -0.0338,0.33539 0.0279,0.6778 -0.008,1.01358 -0.003,0.0304 -0.0522,0.67573 -0.10995,0.69931 -1.21946,0.49768 -1.25695,0.31366 -1.3328,-0.48095 0.0104,-0.23692 0.0305,-0.4725 0.0776,-0.70533 -0.003,-0.0791 -0.0458,-0.18106 -0.0635,-0.25289 -0.07,-0.28437 -0.11348,-0.5741 -0.19514,-0.85577 -0.22706,-0.88443 -0.44755,-1.77943 -0.41486,-2.70074 -0.009,-0.086 1.20721,-0.21351 1.21623,-0.12751 z"
       inkscape:connector-curvature="0" />
    <path
       style="color:#000000;fill:#ffff99;fill-opacity:1;fill-rule:nonzero;stroke:none;stroke-width:6.30000019000000044;marker:none;visibility:visible;display:inline;overflow:visible;enable-background:accumulate;opacity:0.73020001"
       id="path3915"
       d="m 290.14768,246.19521 c -0.0609,1.20824 -0.141,2.41513 -0.17222,3.62477 -0.0525,1.01099 -0.003,2.02281 0.0113,3.03398 0.0304,0.80853 0.007,1.61507 -0.0344,2.42232 6.2e-4,0.30298 -0.057,0.60257 -0.068,0.90457 0.0354,0.1533 -0.0115,0.32433 0.023,0.47601 0.004,0.0186 0.029,0.0258 0.0383,0.0424 0.0233,0.0417 0.0391,0.0873 0.0587,0.13091 0.11825,0.21157 0.24043,0.44288 0.42773,0.60405 0.0937,0.0806 0.25688,0.16317 0.36047,0.22075 0.29206,0.1753 0.58694,0.36616 0.93966,0.37544 0.0667,0.002 0.1417,0.0159 0.19934,-0.0176 0.034,-0.0198 -0.0757,-0.0215 -0.11363,-0.0323 0.65466,-0.18908 1.22184,-0.61221 1.78929,-0.97758 0.0761,-0.0653 0.99958,1.01118 0.92346,1.07648 l 0,0 c -0.72252,0.41247 -1.43528,0.88323 -2.24613,1.10085 -0.23943,0.0181 -0.47818,0.0521 -0.71828,0.0544 -0.60696,0.006 -1.16697,-0.3106 -1.6484,-0.64436 -0.49494,-0.37909 -0.88236,-0.80199 -1.09215,-1.40066 -0.10498,-0.32532 -0.14824,-0.64431 -0.11099,-0.9845 -0.0244,-0.31581 -0.0637,-0.63085 -0.0564,-0.9485 -0.0125,-0.78919 -0.006,-1.5778 -0.0153,-2.36696 -0.0513,-1.03323 -0.13395,-2.06484 -0.15709,-3.09935 0.027,-1.24505 0.0769,-2.50745 0.43366,-3.70962 0.008,-0.0869 1.23631,0.0276 1.22822,0.11449 z"
       inkscape:connector-curvature="0" />
    <path
       style="color:#000000;fill:#ffff99;fill-opacity:1;fill-rule:nonzero;stroke:none;stroke-width:6.30000019000000044;marker:none;visibility:visible;display:inline;overflow:visible;enable-background:accumulate;opacity:0.73020001"
       id="path3917"
       d="m 288.06709,252.81091 c 1.03862,-0.12953 2.0894,-0.11798 3.13436,-0.12038 0.20489,0.001 0.40979,0.001 0.61466,0.004 0.18636,0.003 0.37261,0.0119 0.55899,0.0128 0.55469,0.003 1.12256,-0.10812 1.66793,-0.19619 0.14596,-0.0223 0.29192,-0.0446 0.43788,-0.0669 0.0879,-0.039 0.63966,1.20442 0.55173,1.24343 l 0,0 c -0.15033,0.0371 -0.30067,0.0743 -0.45101,0.11145 -0.54397,0.10095 -1.09638,0.20585 -1.64942,0.24365 -0.69547,0.0475 -1.39463,0.0414 -2.0912,0.0513 -1.0242,-0.002 -2.0551,0.012 -3.07254,-0.12038 -0.0822,-0.0211 0.21638,-1.18417 0.29862,-1.16305 z"
       inkscape:connector-curvature="0" />
    <path
       style="color:#000000;fill:#ffff99;fill-opacity:1;fill-rule:nonzero;stroke:none;stroke-width:6.30000019000000044;marker:none;visibility:visible;display:inline;overflow:visible;enable-background:accumulate;opacity:0.73020001"
       id="path3919"
       d="m 311.45616,253.27747 c 1.03017,0.087 2.04262,0.31232 3.06066,0.48662 0.81226,0.11726 1.63381,0.10204 2.45087,0.0643 0.22166,-0.0125 0.4429,-0.0285 0.66474,-0.037 0.0815,-0.0276 0.47132,1.12466 0.38984,1.15222 l 0,0 c -0.20504,0.0314 -0.4097,0.0653 -0.61248,0.10938 -1.13811,0.2022 -2.30106,0.22095 -3.44469,0.043 -1.03864,-0.17524 -2.0813,-0.39099 -3.07526,-0.74413 -0.076,-0.0401 0.49035,-1.11443 0.56632,-1.07439 z"
       inkscape:connector-curvature="0" />
    <path
       style="color:#000000;fill:#ffff99;fill-opacity:1;fill-rule:nonzero;stroke:none;stroke-width:6.30000019000000044;marker:none;visibility:visible;display:inline;overflow:visible;enable-background:accumulate;opacity:0.73020001"
       id="path3921"
       d="m 311.97804,257.21994 c 1.06383,-0.10789 2.13705,-0.11083 3.20564,-0.11332 0.75031,0.0165 1.50028,0.0716 2.20893,0.33741 0.18841,0.0707 0.34576,0.15941 0.52076,0.25209 0.0585,0.0369 0.11776,0.0726 0.17553,0.11069 0.0374,0.0246 0.0697,0.0575 0.10983,0.0772 0.0157,0.008 0.0512,-0.0369 0.0339,-0.0403 -0.24737,-0.0485 -0.2046,-0.0759 -0.29134,-0.007 0.006,-0.003 0.0118,-0.007 0.0177,-0.01 0.0638,-0.0567 0.86599,0.84583 0.80217,0.90255 l 0,0 c -0.0751,0.0481 -0.15018,0.0963 -0.22527,0.14442 -0.0817,0.0299 -0.15851,0.0807 -0.24502,0.0898 -0.44279,0.0464 -0.666,-0.0813 -1.04313,-0.22052 -0.79607,-0.19165 -1.60871,-0.23747 -2.42623,-0.22634 -1.04909,-0.002 -2.10339,-0.003 -3.14745,-0.11332 -0.0837,-0.0215 0.22025,-1.20532 0.30396,-1.18382 z"
       inkscape:connector-curvature="0" />
    <path
       style="color:#000000;fill:#ffff99;fill-opacity:1;fill-rule:nonzero;stroke:none;stroke-width:6.30000019000000044;marker:none;visibility:visible;display:inline;overflow:visible;enable-background:accumulate;opacity:0.73020001"
       id="path3961"
       d="m 337.77496,271.01606 c 0.16038,0.0366 0.3213,0.0709 0.48116,0.10978 0.99852,0.24263 1.40345,0.3741 2.50508,0.57254 1.52908,0.27543 3.22414,0.48784 4.76077,0.62454 0.99359,0.0884 1.99025,0.13793 2.98537,0.2069 5.99461,0.25701 11.99188,-0.0447 17.98591,-0.15621 3.21731,-0.004 6.4486,0.003 9.63984,0.45513 0.15752,0.0381 0.31504,0.0763 0.47256,0.11439 0.0924,0.0304 -0.33728,1.33687 -0.42966,1.30649 l 0,0 c -0.16388,0.0127 -0.32775,0.0253 -0.49163,0.038 -1.06259,0.0294 -2.12648,0.0427 -3.18829,0.0946 -1.77059,0.0865 -3.5388,0.23466 -5.30849,0.33597 -2.90553,0.20067 -5.81433,0.45742 -8.7258,0.55409 -3.60982,0.11987 -7.23075,0.12128 -10.8271,-0.25841 -1.01365,-0.13866 -2.03289,-0.24131 -3.04096,-0.41599 -1.76014,-0.30499 -3.09629,-0.64268 -4.75552,-1.22717 -0.79288,-0.27931 -1.67818,-0.66315 -2.41449,-1.10083 -0.18777,-0.11161 -0.35589,-0.25338 -0.53384,-0.38008 -0.0618,-0.0626 0.82331,-0.93628 0.88509,-0.8737 z"
       inkscape:connector-curvature="0" />
    <path
       style="color:#000000;fill:#ffff99;fill-opacity:1;fill-rule:nonzero;stroke:none;stroke-width:6.30000019000000044;marker:none;visibility:visible;display:inline;overflow:visible;enable-background:accumulate;opacity:0.73020001"
       id="path3967"
       d="m 183.85596,266.4884 c 4.94102,-0.73672 9.95543,-0.80834 14.94048,-0.92561 0.36559,0.0939 -0.96189,5.26407 -1.32748,5.17021 l 0,0 c -4.82584,-0.11491 -9.68716,-0.16906 -14.46517,-0.92561 -0.23469,-0.0603 0.61748,-3.37925 0.85217,-3.31899 z"
       inkscape:connector-curvature="0" />
    <path
       style="color:#000000;fill:#ffff99;fill-opacity:1;fill-rule:nonzero;stroke:none;stroke-width:6.30000019000000044;marker:none;visibility:visible;display:inline;overflow:visible;enable-background:accumulate;opacity:0.73020001"
       id="path3969"
       d="m 183.24602,275.75107 c 4.98821,-1.11232 10.15915,-1.10777 15.24579,-1.15421 4.28899,-0.0296 8.57754,0.12422 12.8377,0.62806 0.26322,0.0717 -0.7513,3.79426 -1.01452,3.72252 l 0,0 c -3.52439,0.27642 -7.05712,0.37797 -10.59201,0.3943 -5.09153,-0.0158 -10.18833,-0.0426 -15.27214,-0.34842 -0.22927,0.0852 -1.43408,-3.15705 -1.20482,-3.24225 z"
       inkscape:connector-curvature="0" />
    <path
       style="color:#000000;fill:#ffff99;fill-opacity:1;fill-rule:nonzero;stroke:none;stroke-width:6.30000019000000044;marker:none;visibility:visible;display:inline;overflow:visible;enable-background:accumulate;opacity:0.73020001"
       id="path3971"
       d="m 185.93363,285.43166 c 3.53687,-0.4445 7.11202,-0.45236 10.67117,-0.4626 2.92874,0.0216 1.48607,0.006 4.32802,0.0467 0.29143,0.0748 -0.76675,4.19618 -1.05818,4.12135 l 0,0 c -2.86031,0.0409 -1.40964,0.0251 -4.35202,0.0467 -3.47954,-0.01 -6.97788,-0.007 -10.43361,-0.46261 -0.23261,-0.0597 0.61201,-3.34933 0.84462,-3.28961 z"
       inkscape:connector-curvature="0" />
    <path
       style="color:#000000;fill:#ffff99;fill-opacity:1;fill-rule:nonzero;stroke:none;stroke-width:6.30000019000000044;marker:none;visibility:visible;display:inline;overflow:visible;enable-background:accumulate;opacity:0.73020001"
       id="path3973"
       d="m 279.745,272.37203 c -0.12314,0.25771 -0.20712,0.44167 -0.35388,0.70222 -0.0879,0.15597 -0.18629,0.30575 -0.27708,0.46004 -0.31228,0.53065 -0.61684,1.06515 -0.91033,1.60637 -0.14055,0.37947 -0.38822,0.75731 -0.41585,1.17388 -0.003,0.0413 -0.011,0.11705 0.0302,0.12039 0.044,0.004 0.0328,-0.089 0.0704,-0.11222 0.0871,-0.0538 0.19144,-0.0724 0.28716,-0.10862 0.12152,-0.0367 0.2415,-0.079 0.36455,-0.11027 1.04538,-0.26518 0.96997,-0.18601 2.09402,-0.55063 0.89568,-0.29054 1.97979,-0.716 2.83052,-1.10053 0.48576,-0.21956 0.95823,-0.46742 1.43735,-0.70113 0.89314,-0.54717 2.13036,-1.10186 2.7613,-1.99603 0.0939,-0.13301 0.29858,-0.47945 -4.4e-4,-0.56695 -0.12525,-0.0367 -0.26101,-0.002 -0.39151,-0.003 -0.26446,0.02 -0.53031,0.0263 -0.79337,0.06 -0.29084,0.0373 -0.57749,0.10203 -0.86633,0.15253 -0.51605,0.0902 -1.03426,0.16879 -1.54834,0.26966 -1.19505,0.23449 -2.46383,0.52864 -3.63275,0.86625 -0.61056,0.17635 -1.21134,0.38494 -1.81701,0.57741 -1.47493,0.48136 -1.39889,0.40742 -2.70277,0.99913 -0.25476,0.11562 -0.51182,0.22944 -0.75153,0.3737 -0.1708,0.10279 -0.44389,0.26516 -0.41966,0.51881 0.006,0.0652 0.0647,0.11384 0.0971,0.17075 0.0709,0.0709 0.12979,0.15609 0.21255,0.21259 0.26569,0.1814 0.53642,0.22607 0.85736,0.24437 0.91925,0.0524 1.80555,-0.16064 2.70382,-0.32349 1.33526,-0.3494 2.64211,-0.84791 3.7784,-1.64828 0.53573,-0.37734 1.06568,-0.84406 1.36378,-1.44532 0.0945,-0.19066 0.1058,-0.41226 0.1587,-0.61838 -0.0892,-0.46358 -0.0446,-0.62361 -0.39744,-0.96851 -0.37879,-0.37022 -0.9822,-0.4531 -1.48188,-0.35289 -0.0951,0.0191 -0.1715,0.0908 -0.25725,0.13624 -0.14306,0.10633 -0.31906,0.17883 -0.42919,0.31899 -0.29019,0.3693 -0.39351,1.03053 -0.39963,1.45711 -0.012,0.83801 0.16305,1.57548 0.50943,2.34249 0.19742,0.43715 0.47632,0.83272 0.71447,1.24908 0.31834,0.3814 0.60567,0.791 0.95502,1.14421 0.63408,0.64108 1.37361,1.17714 2.17506,1.58817 0.58036,0.29765 0.80183,0.36907 1.37937,0.38818 0.0741,0.002 -0.14584,-0.0264 -0.21876,-0.0396 -0.10806,-0.009 -0.22876,0.0234 -0.32418,-0.0282 -0.24829,-0.13418 -0.44412,-0.3488 -0.67467,-0.5116 -0.37498,-0.26479 -0.75432,-0.52377 -1.14129,-0.77074 -1.1872,-0.75769 -2.25492,-1.34653 -3.46595,-2.08927 -0.70046,-0.42961 -1.39105,-0.87512 -2.08658,-1.31267 -1.78153,-1.19102 -3.58483,-2.37645 -5.16275,-3.83707 -0.087,-0.0806 -1.06013,-0.97715 -1.09932,-1.36004 -0.0245,-0.23933 0.12155,-0.46555 0.18232,-0.69832 0.38531,-0.0432 0.76988,-0.16565 1.15595,-0.12969 0.70646,0.0658 2.26818,0.81291 2.76635,1.06901 1.58626,0.81549 2.86161,1.62081 4.31448,2.68257 0.81941,0.59882 1.59778,1.25187 2.39667,1.87781 2.24283,1.95376 4.33219,4.10527 5.92466,6.63379 0.61763,0.98067 1.39327,2.45875 1.60685,3.6596 0.0699,0.39295 -0.0186,0.79802 -0.0279,1.19703 -0.21708,0.2698 -0.32539,0.69218 -0.65124,0.80939 -1.22367,0.44018 -2.31621,-0.21505 -3.29025,-0.82067 -1.34484,-0.83618 -2.98347,-2.22174 -4.10681,-3.28041 -0.77067,-0.72631 -1.48707,-1.50813 -2.23061,-2.26219 -1.95879,-2.16687 -3.85635,-4.43829 -5.23968,-7.02871 -0.54874,-1.02757 -1.05759,-2.19248 -1.14828,-3.37926 -0.0296,-0.38743 0.0774,-0.77325 0.11605,-1.15988 0.17621,-0.29976 0.29368,-0.64295 0.52862,-0.89929 0.4783,-0.52184 1.19345,-0.78265 1.85277,-0.95217 0.65263,-0.16781 1.40476,-0.23724 2.0783,-0.22117 0.38409,0.009 0.76603,0.0602 1.14904,0.0902 0.33195,0.0965 0.80098,0.17332 1.04887,0.46524 0.40614,0.47828 0.46727,1.03526 0.48527,1.64009 0.0363,1.21824 -0.13416,1.87291 -0.32799,3.12013 -0.19114,0.69343 -0.34921,1.39684 -0.57341,2.0803 -0.49809,1.51845 -1.07484,2.85194 -1.8418,4.25349 -0.58883,1.07601 -1.24808,2.08189 -2.04749,3.0108 -0.21579,0.25074 -0.47265,0.46295 -0.70898,0.69442 -0.15329,0.0459 -0.34322,0.24712 -0.45989,0.13761 -0.96222,-0.90319 -0.55463,-1.4205 -0.17268,-2.46099 0.22572,-0.61487 0.47953,-1.21927 0.73776,-1.82121 0.64711,-1.50839 1.31583,-2.8884 2.01747,-4.37443 1.00843,-2.02047 2.02777,-4.04177 3.23208,-5.95501 0.44312,-0.70395 1.03793,-1.60465 1.64192,-2.22066 0.14786,-0.15081 0.33543,-0.25672 0.50315,-0.38507 0.30079,0.12507 0.75135,0.0866 0.90237,0.37523 0.1674,0.31996 -0.69826,2.24332 -0.71601,2.28285 -0.87603,1.9497 -1.95873,3.80136 -3.00135,5.66394 -0.93516,1.62721 -1.85291,3.26422 -2.75746,4.9086 -0.14109,0.25648 -0.28404,0.51196 -0.42237,0.76993 -0.0286,0.0533 -0.0333,0.20411 -0.0783,0.16372 -0.13607,-0.12207 -0.18053,-0.31791 -0.27079,-0.47687 1.46357,-1.39072 2.76483,-2.94001 4.04912,-4.49407 1.52403,-1.84414 1.49427,-1.83493 2.96951,-3.73142 1.25912,-1.57818 2.38924,-3.25533 3.6509,-4.83142 0.18096,-0.22606 0.97498,-1.20714 1.34917,-1.46343 0.11368,-0.0779 0.26187,-0.0858 0.39281,-0.1287 0.21589,0.32314 0.57975,0.58677 0.64769,0.96941 0.078,0.43948 -0.8337,2.87464 -0.86669,2.9572 -0.71272,1.78372 -1.41675,3.19131 -2.43638,4.84639 -0.58204,0.94478 -1.23837,1.84174 -1.85755,2.76261 -1.9885,2.67828 -4.29379,5.10319 -6.86979,7.22221 -1.23015,1.01191 -2.65435,2.04051 -4.07808,2.78438 -0.53048,0.27717 -1.10064,0.47064 -1.65096,0.70596 -0.47399,0.10014 -0.93909,0.26133 -1.42196,0.30043 -1.07301,0.0869 -1.71771,0.009 -2.64688,-0.43347 -0.71474,-0.34052 -1.28393,-0.80918 -1.85071,-1.35359 -0.28661,-0.2753 -0.54383,-0.57964 -0.81574,-0.86946 -1.04353,-1.26918 -1.86491,-2.72416 -2.21289,-4.34344 -0.21349,-0.99347 -0.15985,-1.23265 -0.14985,-2.21111 0.0924,-0.75617 0.21859,-1.57071 0.81969,-2.11487 0.74805,-0.67718 1.82494,-0.77218 2.76305,-0.94307 3.89722,-0.53634 7.80828,-1.00769 11.73265,-1.29597 1.03688,-0.0762 2.07548,-0.1268 3.11322,-0.1902 2.79624,-0.13379 5.59899,-0.15992 8.39556,-0.0199 0.78686,0.0394 2.22617,0.14571 3.09257,0.27021 0.18106,0.026 0.35757,0.0773 0.53635,0.116 -0.088,0.21127 -0.10668,0.46763 -0.26405,0.63381 -0.25985,0.27439 -1.42526,0.0944 -1.49628,0.0894 -1.30457,-0.0919 -2.60812,-0.21382 -3.9117,-0.31932 -1.04347,-0.0734 -2.08782,-0.14704 -3.13379,-0.16716 -0.0734,0.0237 -0.40912,-1.01451 -0.33571,-1.03824 l 0,0 c 0.19533,-0.032 0.38904,-0.0763 0.58599,-0.0961 1.10611,-0.11102 2.22331,-0.12248 3.33311,-0.0827 0.44539,0.0307 0.89183,0.0488 1.33618,0.092 0.81281,0.079 1.81168,0.22141 2.61546,0.39644 0.21896,0.0477 1.5689,0.3312 1.74336,0.68153 0.12281,0.2466 -0.0841,0.54452 -0.12612,0.81678 -0.17161,0.0722 -0.33376,0.17331 -0.51482,0.21666 -0.82223,0.19689 -2.19632,0.27701 -2.95379,0.32262 -2.73773,0.16486 -5.48154,0.19397 -8.22066,0.32708 -2.97333,0.13137 -5.9459,0.281 -8.91963,0.40299 -1.44799,0.0594 -3.06415,0.123 -4.52251,0.1456 -0.54245,0.008 -1.08502,0.003 -1.62753,0.005 -0.38014,0.007 -0.76068,0.003 -1.14044,0.0214 -0.16549,0.008 -0.94026,0.0481 -1.18107,0.19047 -0.48673,0.28771 -0.38327,1.08198 -0.43542,1.52328 0.0363,0.80597 0.0148,1.08823 0.20143,1.90116 0.33117,1.44279 1.05108,2.73199 1.9825,3.87149 0.64277,0.71059 1.28182,1.50774 2.19113,1.8967 0.23019,0.0985 1.056,0.31575 1.3851,0.26137 0.37361,-0.0617 0.72731,-0.21117 1.09097,-0.31675 0.4501,-0.25317 0.91967,-0.47447 1.35029,-0.75952 1.21178,-0.80213 2.51408,-1.92865 3.56808,-2.89397 2.34941,-2.15173 4.55049,-4.46684 6.54635,-6.95114 0.64908,-0.85225 1.32139,-1.6873 1.94724,-2.55675 1.11447,-1.54825 1.89675,-2.81184 2.84874,-4.43581 0.30221,-0.51552 0.58829,-1.04034 0.87841,-1.56276 0.18274,-0.32906 0.23737,-0.76801 0.54013,-0.99164 0.23197,-0.17134 0.57598,-0.0303 0.86397,-0.0455 0.3431,-0.0662 0.18786,-0.0717 -0.1666,0.59195 -0.19137,0.35832 -0.39398,0.71065 -0.60134,1.05996 -0.59708,1.0058 -1.38412,2.25345 -2.03494,3.20058 -0.43951,0.63961 -0.90417,1.26158 -1.35625,1.89237 -0.50613,0.64628 -0.99615,1.30551 -1.51837,1.93886 -1.05676,1.28162 -2.00477,2.32469 -3.19883,3.47218 -0.72002,0.69192 -1.77503,1.63585 -2.6518,2.1876 -0.3213,0.2022 -0.67981,0.33813 -1.01971,0.50719 -0.34921,-0.13166 -0.7597,-0.15755 -1.04763,-0.39499 -0.32827,-0.2707 0.006,-1.40288 0.0456,-1.53689 0.54306,-1.84587 1.51224,-3.53281 2.42899,-5.20871 0.40126,-0.66983 0.79406,-1.34481 1.20378,-2.0095 0.67877,-1.10115 1.48292,-2.33282 2.21084,-3.41301 0.25294,-0.37533 0.49124,-0.76188 0.77083,-1.1178 0.12494,-0.15905 0.24196,-0.36871 0.43749,-0.42042 0.27243,-0.072 0.56093,0.0548 0.84139,0.0822 -0.44593,0.91748 -0.94112,1.81071 -1.4005,2.72168 -1.00415,1.99125 -1.94333,4.01415 -2.96684,5.99576 -0.93075,1.81216 -1.27432,2.53054 -2.26775,4.27693 -0.32242,0.56681 -0.65787,1.12623 -0.99888,1.68205 -0.17872,0.2913 -0.925,2.10057 -1.82128,1.13891 0.67297,-1.2618 1.40322,-2.49156 2.05583,-3.76457 0.98211,-1.91576 1.85464,-3.88612 2.56134,-5.92089 0.33731,-1.14283 0.53147,-1.69059 0.7557,-2.79834 0.0437,-0.21586 0.0681,-0.43531 0.093,-0.65413 0.008,-0.0699 0.051,-0.15742 0.005,-0.21105 -0.11403,-0.13422 -0.75903,-0.11497 -0.78504,-0.11619 -0.76618,-0.008 -1.52878,0.0105 -2.28937,0.1162 -0.29438,0.0409 -1.08994,0.16287 -1.38782,0.36956 -0.13357,0.0927 -0.19865,0.25741 -0.29797,0.38611 0.0194,0.25418 -0.0113,0.51729 0.0583,0.76253 0.2756,0.97143 0.94108,1.97158 1.49203,2.76865 1.61163,2.33156 3.49005,4.46682 5.32929,6.61664 1.65913,1.84972 2.20741,2.51935 3.93092,4.22629 0.51444,0.5095 1.05504,0.99188 1.58257,1.48782 0.37939,0.2988 0.79343,0.55821 1.13817,0.89641 0.12039,0.1181 0.1104,0.33341 0.23323,0.44896 0.0537,0.0505 0.14665,-0.0151 0.21998,-0.0226 -0.067,-0.25712 -0.0961,-0.5273 -0.20116,-0.77134 -0.44915,-1.04295 -1.23856,-2.20082 -1.90002,-3.07873 -1.70583,-2.26404 -3.69316,-4.29528 -5.79189,-6.19426 -0.74066,-0.63485 -1.46988,-1.28331 -2.22199,-1.90456 -1.07263,-0.886 -2.64705,-2.10756 -3.81709,-2.92601 -0.42913,-0.30018 -0.86939,-0.58478 -1.31687,-0.85683 -0.28643,-0.17414 -0.63974,-0.25041 -0.88325,-0.48077 -0.086,-0.0813 -10e-5,-0.23664 -1.6e-4,-0.35496 -0.0129,-0.15292 -0.1747,-0.38777 -0.0386,-0.45875 0.14943,-0.078 0.2948,0.16355 0.43979,0.24948 0.32057,0.18999 0.63864,0.38416 0.95678,0.57819 0.48927,0.2984 0.98334,0.58922 1.46543,0.89907 0.94091,0.60475 3.01108,2.01954 3.90124,2.62397 1.02158,0.70858 2.80426,1.92999 3.82113,2.69171 0.50447,0.37789 1.00771,0.759 1.48444,1.17134 0.45318,0.39197 1.50355,1.34748 1.73287,2.0149 0.10834,0.31532 0.0174,0.66659 0.0262,0.99989 -0.27877,0.15359 -0.52882,0.37856 -0.8363,0.46077 -0.57443,0.15359 -1.54443,-0.14276 -2.01221,-0.35192 -0.98737,-0.44148 -1.83651,-1.07642 -2.57231,-1.86857 -0.39397,-0.42416 -0.7032,-0.91979 -1.05481,-1.37968 -0.24643,-0.51117 -0.54949,-0.99871 -0.73928,-1.53349 -0.53988,-1.52126 -0.62341,-3.68661 0.55528,-4.96233 0.20338,-0.22013 0.48887,-0.34683 0.73331,-0.52024 0.36171,-0.0674 0.71794,-0.17874 1.08513,-0.20211 1.12986,-0.0719 2.25043,0.62242 2.61176,1.70919 0.0974,0.29287 0.0926,0.61029 0.13884,0.91544 -0.0604,0.33099 -0.0639,0.67763 -0.1812,0.99298 -0.66281,1.78187 -2.59598,2.87613 -4.29069,3.4615 -0.48552,0.1677 -0.99354,0.26128 -1.49031,0.39192 -0.45542,0.0552 -0.90803,0.14357 -1.36625,0.16548 -0.77737,0.0372 -1.64451,0.0157 -2.4081,-0.20559 -0.46678,-0.13526 -0.87655,-0.34145 -1.20018,-0.71046 -0.1295,-0.14767 -0.20502,-0.33508 -0.30753,-0.50262 -0.0393,-0.2029 -0.12476,-0.40213 -0.11799,-0.6087 0.0154,-0.46994 0.25546,-0.88079 0.56672,-1.21436 0.92136,-0.9874 2.2349,-1.46931 3.43463,-2.00426 0.63403,-0.20975 1.26015,-0.44511 1.90208,-0.62924 1.2706,-0.36444 2.54708,-0.62465 3.85874,-0.78522 0.99517,-0.12183 2.37969,-0.19871 3.38259,-0.10154 0.35304,0.0342 0.69228,0.15485 1.03843,0.23227 0.24203,0.17868 0.54445,0.29623 0.72611,0.53604 0.35699,0.47126 0.30362,1.07938 0.0849,1.58316 -0.53976,1.24343 -1.7845,1.96604 -2.87072,2.6483 -0.51006,0.25363 -1.00786,0.53359 -1.53018,0.76091 -0.51863,0.2257 -1.05194,0.41766 -1.58858,0.59636 -1.23865,0.41248 -2.5452,0.72721 -3.85496,0.78598 -0.3441,0.0155 -0.68885,-0.008 -1.03327,-0.0126 -0.1992,-0.0591 -0.41935,-0.0704 -0.5976,-0.17714 -0.8274,-0.4955 -0.33587,-1.65995 -0.0783,-2.31418 0.10114,-0.19284 0.19586,-0.38919 0.30343,-0.57852 0.16097,-0.28332 0.49452,-0.79556 0.67555,-1.07152 0.24896,-0.37948 0.49756,-0.76446 0.82863,-1.07963 0.0288,-0.0534 0.78445,0.35345 0.75568,0.40689 z"
       inkscape:connector-curvature="0" />
    <path
       style="color:#000000;fill:#ffff99;fill-opacity:1;fill-rule:nonzero;stroke:none;stroke-width:6.30000019000000044;marker:none;visibility:visible;display:inline;overflow:visible;enable-background:accumulate;opacity:0.73020001"
       id="path3987"
       d="m 350.51594,270.67495 c 0.1091,-0.17823 0.20006,-0.36891 0.32729,-0.53469 1.04832,-1.36597 2.69554,-2.12873 4.20167,-2.85897 0.1667,-0.0716 1.4308,-0.61079 1.65879,-0.72082 0.26797,-0.12933 0.9059,-0.38174 0.9648,-0.76652 0.0111,-0.0723 -0.0196,-0.14503 -0.0294,-0.21755 -0.2152,-0.78849 -0.52734,-1.57042 -1.08189,-2.18935 -0.40899,-0.45649 -0.71122,-0.58006 -1.23386,-0.89061 -0.92438,-0.35912 -1.91883,-0.39428 -2.87961,-0.16672 -0.2754,0.0652 -0.55729,0.10933 -0.82463,0.20224 -0.23822,0.0828 -0.45636,0.21482 -0.68454,0.32222 -0.1477,0.1429 -0.3276,0.2587 -0.4431,0.42868 -0.47606,0.70062 -0.25637,2.18738 0.10018,2.8876 0.12813,0.25163 0.32533,0.46163 0.488,0.69245 0.23095,0.16726 0.44037,0.36923 0.69284,0.50178 1.85793,0.97545 4.07223,0.61297 6.06225,0.4429 0.9014,-0.10656 1.59502,-0.14896 2.45992,-0.38617 0.13048,-0.0358 0.80416,-0.22607 0.94581,-0.48082 0.034,-0.0611 -0.18879,-0.50285 -0.21204,-0.55438 -0.17047,-0.56552 -0.70268,-1.12596 -0.80285,-1.70948 -0.0262,-0.15255 -0.11777,-0.40637 0.026,-0.46363 1.71133,-0.68149 1.54561,-0.52405 2.37447,0.34693 1.28446,1.48291 2.3386,3.15736 3.7042,4.56946 -0.0405,-0.0488 -0.0588,-0.15586 -0.12148,-0.14636 -0.38053,0.0577 -0.72099,0.32269 -1.10574,0.33237 -0.14063,0.004 -0.21719,-0.18315 -0.29978,-0.29703 -0.19089,-0.26324 -0.32953,-0.56148 -0.51599,-0.82788 -0.65768,-0.93967 -0.98417,-1.25552 -1.76344,-2.13817 -1.19228,-1.18893 -2.47008,-2.17526 -4.22188,-2.21318 -0.12414,-0.003 -0.24204,0.0556 -0.36349,0.0814 -0.28658,0.061 -0.57371,0.1195 -0.86056,0.17925 -0.52026,0.22988 -0.87346,0.29468 -1.22075,0.76494 -0.61384,0.83119 -0.21597,2.17004 0.002,3.05692 0.4334,1.06681 1.04702,2.04967 2.31799,2.0979 0.13564,0.005 0.27057,-0.0223 0.40585,-0.0334 -0.24033,-0.36518 -0.45746,0.13859 -0.67114,0.0685 -0.13278,-0.0436 -0.22406,-0.16811 -0.32536,-0.26437 -0.22524,-0.21401 -0.42045,-0.45908 -0.65296,-0.66518 -0.97223,-0.8618 -1.25816,-0.97938 -2.39306,-1.70993 -0.51061,-0.2693 -1.00969,-0.56169 -1.53182,-0.80789 -1.7761,-0.83746 -3.87627,-1.58747 -5.86935,-1.2551 -1.111,0.1809 -1.39327,0.22259 -1.61587,1.29137 -0.0964,0.57144 0.11985,1.14337 0.0736,1.71308 -0.0103,0.12699 -0.0448,0.25086 -0.0672,0.37629 -0.0968,0.16499 -0.1466,0.36884 -0.29041,0.49497 -0.51448,0.45125 -0.93612,0.32411 -1.56477,0.15132 -0.20287,-0.0558 -0.69393,-0.35669 -0.80555,-0.55691 -0.11875,-0.21299 -0.14407,-0.46596 -0.2161,-0.69894 0.18497,-0.30656 0.29679,-0.67156 0.55491,-0.9197 0.24051,-0.2312 1.17002,-0.36488 1.45073,-0.38253 0.93649,-0.0589 1.84414,0.0151 2.77048,0.12194 0.57168,0.0838 1.13911,0.18938 1.71459,0.245 0.0624,0.006 0.24861,-10e-4 0.18764,0.0137 -0.102,0.0246 -0.20953,0.0112 -0.3143,0.0168 -0.01,0.01 -0.0191,0.0195 -0.0286,0.0292 0.10307,-0.0591 0.9384,1.39865 0.83532,1.45771 l 0,0 c -0.10298,0.0407 -0.20595,0.0815 -0.30893,0.12218 -0.90379,0.0504 -1.80146,0.0409 -2.70454,-0.0392 -0.72314,-0.0402 -1.46751,-0.0532 -2.18609,-0.14985 -0.10266,-0.0138 -0.26296,0.0203 -0.30132,-0.076 -0.0763,-0.19125 0.0166,-0.41144 0.025,-0.61716 -0.0558,-0.10308 -0.15632,-0.19255 -0.16734,-0.30924 -0.006,-0.0582 0.097,0.0652 0.14713,0.0952 0.0708,0.0425 0.2743,0.0647 0.21526,0.12237 -0.0905,0.0884 -0.2663,-0.0233 -0.37784,0.0365 -0.22619,0.12115 -0.26304,0.38332 -0.32563,0.593 0.0223,-0.15047 -0.0784,-0.56462 -0.092,-0.67549 -0.0592,-0.48441 -0.0723,-0.97418 -0.006,-1.45875 0.22269,-1.16942 0.60866,-2.06812 1.73748,-2.64673 0.28381,-0.14547 0.5946,-0.23088 0.8919,-0.34632 1.29909,-0.17237 1.88649,-0.33003 3.15547,-0.22473 2.44193,0.20263 4.71282,1.18855 6.73435,2.53281 0.48124,0.38236 0.99386,0.72825 1.44371,1.14708 0.60507,0.56334 1.4466,1.54372 1.77332,2.35116 0.15163,0.37474 0.28546,0.78217 0.25632,1.18538 -0.0267,0.36935 -0.14162,0.78174 -0.41645,1.02994 -0.31893,0.288 -0.80776,0.29354 -1.21164,0.44031 -0.66945,-0.0338 -0.95202,0.005 -1.60556,-0.26904 -0.9873,-0.41417 -1.76531,-1.19551 -2.27161,-2.12889 -0.18981,-0.34993 -0.31188,-0.73257 -0.46782,-1.09886 -0.21561,-1.00412 -0.37384,-1.394 -0.29335,-2.44074 0.0973,-1.26585 0.59467,-2.38477 1.64342,-3.14302 0.31211,-0.22566 0.6833,-0.3556 1.02495,-0.5334 1.3242,-0.38489 1.37068,-0.49575 2.97735,-0.41248 1.55505,0.0806 3.0093,0.80647 4.19459,1.7783 0.4388,0.35977 0.81324,0.79155 1.21987,1.18733 0.87457,1.15665 1.82789,2.33463 2.18642,3.77988 0.0897,0.36164 0.30337,0.78299 0.12603,1.1107 -0.25113,0.46407 -0.75928,0.7793 -1.25158,0.96923 -0.2242,0.0865 -0.45733,-0.14782 -0.68599,-0.22173 -0.18829,-0.13933 -0.3867,-0.26591 -0.56486,-0.41797 -1.42083,-1.21273 -2.43175,-2.82489 -3.41017,-4.39274 -0.113,-0.20292 -0.47258,-0.41876 -0.33901,-0.60878 0.29543,-0.42026 0.91564,-0.47748 1.32281,-0.7907 0.0666,-0.0512 -0.0419,-0.29309 0.0303,-0.25021 0.15597,0.0925 0.21545,0.29272 0.30608,0.44981 0.44189,0.76596 0.40777,0.802 0.70736,1.65915 0.10135,0.8353 0.26369,1.17737 -0.12208,1.98279 -0.73633,1.53731 -2.76082,1.75408 -4.20855,2.04235 -0.55318,0.0638 -1.10335,0.16442 -1.65954,0.19133 -2.33145,0.11278 -4.88266,-0.004 -6.82089,-1.48378 -0.36311,-0.2772 -0.65026,-0.6418 -0.97539,-0.96269 -0.20929,-0.37622 -0.46329,-0.73084 -0.62786,-1.12865 -0.59569,-1.4399 -0.57727,-3.33935 0.33502,-4.65114 0.21777,-0.31314 0.53278,-0.54596 0.79917,-0.81894 0.32213,-0.17975 0.62751,-0.39351 0.96639,-0.53923 1.40965,-0.60614 3.57977,-0.66218 5.04745,-0.17241 0.36444,0.12161 0.70001,0.31686 1.05001,0.47529 0.77758,0.57388 1.04804,0.68502 1.63395,1.46933 0.69778,0.93409 1.01321,2.08314 1.12007,3.22528 -0.0823,0.70392 -0.019,0.88898 -0.42659,1.49729 -0.63146,0.94233 -1.80302,1.33304 -2.75815,1.82978 -0.6203,0.30644 -1.25087,0.59223 -1.86578,0.90933 -0.72692,0.37486 -1.40105,0.80596 -2.0806,1.2558 -0.0857,0.0567 -0.17649,0.10538 -0.26474,0.15808 -0.0459,0.11178 -1.6268,-0.53707 -1.58092,-0.64886 z"
       inkscape:connector-curvature="0" />
    <path
       style="color:#000000;fill:#ffff99;fill-opacity:1;fill-rule:nonzero;stroke:none;stroke-width:6.30000019000000044;marker:none;visibility:visible;display:inline;overflow:visible;enable-background:accumulate;opacity:0.73020001"
       id="path3991"
       d="m 354.04072,281.66356 c -0.61677,0.12903 -1.26333,0.15801 -1.85482,0.39176 -0.21928,0.0867 -0.1962,0.0422 -0.22756,0.15628 0.0168,9e-4 0.0389,0.0149 0.0506,0.003 0.0486,-0.0506 0.0567,-0.13791 0.1158,-0.17579 0.20401,-0.13086 0.81962,-0.0779 0.926,-0.0796 1.05453,-0.0173 0.69369,0.003 1.53526,-0.0785 0.76181,-0.0713 1.34515,-0.10402 2.08938,-0.25336 0.15009,-0.0301 0.68384,-0.12873 0.86964,-0.31346 0.0528,-0.0525 -0.1225,0.1046 -0.19702,0.10567 -0.0999,0.001 -0.18869,-0.0659 -0.28303,-0.0988 -1.00512,-0.53934 -2.09327,-0.90853 -3.22462,-1.06768 -0.65516,-0.0922 -0.59589,-0.0859 -1.01234,-0.0407 -0.34238,0.0738 -0.78679,-0.0174 -1.11172,0.16379 -0.007,0.004 -0.001,0.0219 0.006,0.0217 0.0287,-4.9e-4 0.0587,-0.0388 0.0828,-0.0233 0.0573,0.0369 0.0855,0.10621 0.1283,0.15932 0.13633,0.16579 0.36287,0.46061 0.53505,0.58632 0.28545,0.20841 0.7533,0.38134 1.11117,0.37407 0.0867,-0.002 -0.17013,-0.0332 -0.2552,-0.0499 -0.0381,0.0224 -0.10771,0.0686 -0.14867,0.0394 -0.0623,-0.0444 -0.0862,-0.12644 -0.12642,-0.19146 -0.0887,-0.14322 -0.16466,-0.2945 -0.26035,-0.43314 -0.41375,-0.59945 -0.49757,-0.64261 -1.01768,-1.19074 -0.82323,-0.73466 -1.44176,-1.09127 -2.56406,-0.9604 -0.045,0.005 -0.0761,0.0523 -0.11983,0.0641 -0.19042,0.0511 -0.38565,0.0822 -0.57848,0.12329 -0.22581,0.0922 -0.53595,0.17622 -0.70651,0.38057 -0.22315,0.26737 0.0633,1.09849 0.14247,1.37627 0.0964,0.28925 0.75332,1.79872 0.40161,2.04397 -0.39348,0.27438 -0.90631,0.3147 -1.35946,0.47205 -1.16581,-0.71492 -1.56977,-2.00683 -1.90457,-3.25742 -0.22387,-1.23929 -0.39194,-1.6442 1.60247,-1.23583 0.14505,0.0297 0.0864,0.28355 0.11826,0.42813 0.0419,0.18992 0.0684,0.38289 0.10268,0.57434 0.11936,0.64845 0.21943,1.30092 0.34092,1.94893 0.059,0.31464 0.10971,0.70262 0.28475,0.98111 -0.68746,-0.76308 0.16098,-0.0221 -1.34254,-0.12147 -0.10127,-0.007 -0.05,-0.19682 -0.0695,-0.29642 -0.12495,-0.63753 -0.12896,-0.83466 -0.2926,-1.50332 -0.074,-0.30223 -0.16768,-0.59928 -0.25152,-0.89893 -0.34914,-0.90812 -0.75924,-2.29318 -1.7779,-2.6893 -0.1108,-0.0431 -0.2332,-0.0464 -0.3498,-0.0696 -0.40019,-0.0295 -0.80726,-0.0213 -1.20616,-0.0662 -0.12366,-0.0139 0.24852,0.0136 0.37287,0.0181 0.0258,9.2e-4 0.0542,-0.0131 0.0775,-0.002 0.0455,0.0218 0.0784,0.0635 0.11752,0.0953 0.79314,1.76249 2.15322,3.19154 3.53305,4.51089 0.78627,0.66716 1.6046,1.33522 2.60167,1.66139 0.9006,0.29462 2.14071,0.37357 3.08405,0.476 1.62495,0.10015 3.25184,0.14136 4.87913,0.16503 0.14587,-0.0105 0.45311,-0.003 0.61173,-0.0933 0.0142,-0.008 -0.0258,-0.0245 -0.0274,-0.0408 -0.007,-0.0761 0.005,-0.15299 10e-4,-0.22935 -0.0219,-0.4459 -0.0551,-0.61826 -0.11569,-1.08943 -0.2231,-0.69881 -0.45611,-1.47755 -0.9857,-2.01832 -0.0484,-0.0494 -0.10878,-0.13351 -0.17466,-0.1123 -0.0512,0.0165 0.021,0.10561 0.0314,0.15842 -0.66013,0.28324 0.69568,-0.20346 0.74314,0.04 0.0227,0.11641 -0.004,0.2373 4.2e-4,0.35581 0.007,0.17992 0.0148,0.36021 0.0362,0.53901 0.0731,0.61074 0.0965,0.59298 0.27846,1.16832 0.19731,0.32375 0.2809,0.56266 0.62538,0.7552 0.49098,0.27441 1.39695,0.19271 1.90785,0.047 0.70937,-0.0974 1.42266,-0.19053 2.12617,-0.32607 0.12691,-0.0245 0.25151,-0.0596 0.37688,-0.0911 0.0415,-0.0104 0.12508,-0.0771 0.12363,-0.0344 -0.002,0.0666 -0.0851,0.10245 -0.12767,0.15368 -0.0503,0.046 -0.0836,0.14962 -0.1508,0.13816 -0.10072,-0.0172 -0.14766,-0.14203 -0.22963,-0.20301 -0.14266,-0.10612 -0.29577,-0.19741 -0.44288,-0.29727 -0.64831,-0.44008 -1.28977,-0.81725 -1.98977,-1.17049 -0.53724,-0.28166 -1.09366,-0.42819 -1.69379,-0.46506 -0.042,-0.003 0.16488,0.004 0.12508,0.0181 -0.0685,0.0237 -0.17087,0.0157 -0.25221,0.0106 0.043,-0.0337 0.0761,-0.0875 0.12902,-0.10095 0.0434,-0.011 0.0946,0.14209 0.16237,0.23036 0.0694,0.0904 0.14498,0.17649 0.22735,0.25519 0.26935,0.25737 0.37005,0.29549 0.69285,0.49606 0.4213,0.17049 0.84704,0.22246 1.2965,0.14553 0.0217,-0.004 0.0229,-0.0443 0.0444,-0.0491 0.69304,-0.10028 0.3537,-0.035 1.01844,-0.19363 0.24344,-0.10409 0.86145,-0.24912 0.84712,-0.63475 -0.006,-0.17097 -0.0851,-0.33145 -0.13148,-0.49613 -0.10947,-0.36133 -0.25117,-0.73451 -0.51182,-1.01819 -0.0453,-0.0493 -0.0981,-0.14206 -0.16115,-0.1197 -0.0524,0.0186 -0.004,0.1466 0.0501,0.15907 0.21964,0.0505 0.45073,0.005 0.67609,0.008 0.0358,-0.0154 0.0709,-0.0596 0.10744,-0.0461 0.0276,0.0102 0.37872,0.61201 0.44603,0.68619 0.2055,0.22653 0.48024,0.33993 0.74281,0.4807 0.32611,0.10774 0.57522,0.22228 0.92578,0.21579 0.026,-4.8e-4 -0.062,-0.0588 -0.0377,-0.0684 0.12172,-0.0483 0.26373,-0.0245 0.38657,-0.0699 0.28986,-0.10706 0.5733,-0.35082 0.81253,-0.53094 0.28347,-0.27015 0.38817,-0.34674 0.61793,-0.64756 0.0504,-0.066 0.094,-0.1374 0.13331,-0.21056 0.0111,-0.0207 0.0387,-0.0769 0.0168,-0.0684 -0.0318,0.0867 -0.002,0.064 -0.0704,0.087 -0.32194,-0.38116 -0.64632,-0.76892 -1.00492,-1.11679 -0.1311,-0.0892 -0.18908,-0.25125 -0.33335,-0.14823 -0.0314,0.0224 -0.12418,0.0347 -0.0974,0.0625 0.0459,0.0477 0.25217,0.006 0.19486,0.0388 -0.10339,0.0599 -0.2363,0.0358 -0.35446,0.0536 -1.22466,0.2545 -2.46991,0.26633 -3.71414,0.24366 -0.54138,0.005 -1.0871,-0.12213 -1.62883,-0.094 -0.0697,0.004 0.25457,-0.0272 0.208,0.0248 -0.0637,0.0712 -0.18722,0.0377 -0.28083,0.0565 -0.0902,0.0305 -0.1849,0.05 -0.2706,0.0915 -0.3889,0.18826 -0.72613,0.50873 -1.08657,0.742 -0.46599,0.30157 -0.52868,0.31811 -1.01746,0.56784 -0.77886,0.36696 -1.55924,0.4505 -2.41153,0.35005 -0.1837,-0.0217 -0.49847,-0.14874 -0.67749,-0.21526 -0.16932,-0.0687 -0.31851,-0.15882 -0.5024,-0.15851 -0.10953,-0.0494 0.58921,-1.5984 0.69875,-1.54899 l 0,0 c 0.21271,0.0631 0.42473,0.12893 0.63965,0.18427 0.0672,0.0142 0.13391,0.0315 0.20174,0.0426 0.0689,0.0113 0.25226,-0.0294 0.2081,0.0247 -0.0505,0.0619 -0.29947,-0.039 -0.23921,0.0134 0.11731,0.10206 0.86152,-0.14579 0.96978,-0.19286 0.27996,-0.1339 0.59453,-0.2771 0.86271,-0.43437 0.61084,-0.35822 1.13331,-0.86894 1.83141,-1.06892 0.14309,-0.0411 0.28199,-0.10159 0.42928,-0.12324 0.84661,-0.1244 1.68567,-0.0337 2.53515,-0.0488 0.85655,-0.0271 1.74331,-0.0492 2.60798,-0.14397 1.07888,-0.1233 1.80484,-0.17777 2.60847,0.60661 0.43458,0.44146 0.84227,0.92162 1.17033,1.4479 0.0601,0.13167 0.14066,0.25582 0.18035,0.39503 0.28482,0.99898 -0.37252,1.84843 -1.0297,2.51967 -0.5752,0.46047 -1.30749,1.03788 -2.0798,1.1098 -1.00824,0.0939 -1.8604,-0.0972 -2.72569,-0.58454 -0.53544,-0.42033 -0.79162,-0.54696 -1.16235,-1.13561 -0.39151,-0.62163 -0.59903,-1.4786 -0.29305,-2.18089 0.0931,-0.21375 0.27193,-0.37881 0.40789,-0.56821 0.37489,-0.0784 0.74179,-0.2444 1.12467,-0.23516 0.2194,0.005 0.41507,0.15461 0.59741,0.27675 0.6484,0.43432 0.91328,1.26505 1.10375,1.97244 0.0932,0.53517 0.17099,0.71613 0.0657,1.27768 -0.17489,0.93274 -0.8827,1.50877 -1.71828,1.85039 -1.25224,0.38035 -2.63896,0.62123 -3.89739,0.1113 -0.23454,-0.095 -0.44758,-0.23629 -0.67138,-0.35443 -0.18621,-0.15268 -0.38806,-0.28807 -0.55863,-0.45804 -0.57654,-0.57446 -1.10496,-1.52904 -0.85323,-2.37791 0.0679,-0.22897 0.21865,-0.42467 0.32797,-0.63701 0.13818,-0.10778 0.26237,-0.23643 0.41455,-0.32333 0.49823,-0.2845 0.97575,-0.25283 1.56093,-0.24214 0.81441,0.0149 1.58704,0.31779 2.31576,0.65032 1.02555,0.57796 2.08,1.18694 2.78746,2.16179 0.13496,0.18598 0.26895,0.3823 0.33545,0.60225 0.0816,0.26977 0.067,0.55967 0.10045,0.8395 -0.0959,0.20936 -0.15558,0.4395 -0.28774,0.62808 -0.56677,0.80866 -2.37126,0.94543 -3.23463,1.14194 -0.88092,0.0388 -1.57823,0.14359 -2.42716,-0.0357 -0.93071,-0.19659 -1.72597,-0.66657 -2.26066,-1.46519 -0.16218,-0.24224 -0.26243,-0.52064 -0.39364,-0.78095 -0.0732,-0.26991 -0.16822,-0.53482 -0.21957,-0.80972 -0.1242,-0.6649 -0.15573,-1.65226 0.087,-2.29779 0.0982,-0.2611 0.17935,-0.56975 0.4067,-0.73139 0.33275,-0.23658 0.77527,-0.25637 1.16291,-0.38456 0.21867,0.0752 0.45121,0.11836 0.65602,0.22576 0.80266,0.42089 1.38208,1.5573 1.636,2.37617 0.0903,0.29134 0.13584,0.59474 0.20376,0.8921 0.0525,1.04992 0.11124,2.18985 -0.74992,2.9663 -0.31776,0.28651 -0.73053,0.34858 -1.12132,0.45382 -2.05251,0.24202 -4.13226,0.22613 -6.18968,0.0509 -1.20738,-0.16339 -2.42261,-0.32558 -3.5664,-0.77478 -1.16959,-0.45932 -2.17944,-1.20585 -3.12108,-2.02249 -0.31648,-0.31811 -0.64628,-0.62351 -0.94945,-0.95433 -1.0534,-1.14942 -2.15083,-2.59617 -2.54375,-4.13363 -0.0775,-0.30327 -0.0883,-0.61976 -0.13247,-0.92964 0.12629,-0.57952 0.1039,-1.17478 0.72583,-1.5013 0.8239,-0.43255 1.84655,-0.19927 2.69787,-0.046 0.61007,0.24727 0.7958,0.26842 1.31512,0.70391 0.99575,0.835 1.54166,2.04309 1.93712,3.24928 0.21786,0.97096 0.43671,1.93125 0.34978,2.93596 -0.0223,0.25738 0.0346,0.57163 -0.13966,0.76234 -0.33115,0.36234 -0.77604,0.67052 -1.25745,0.76641 -0.23839,0.0475 -0.40921,-0.26245 -0.61381,-0.39368 -0.0908,-0.13809 -0.19766,-0.2669 -0.27253,-0.41427 -0.45818,-0.90179 -0.57987,-2.18009 -0.67328,-3.17064 -0.005,-0.18028 -0.015,-0.3605 -0.015,-0.54085 3e-5,-0.11563 -0.0913,-0.3016 0.0152,-0.34655 0.51036,-0.21532 1.07996,-0.24921 1.62543,-0.34563 0.0281,-0.005 0.0608,0.0195 0.0725,0.0455 0.0437,0.0975 0.21294,0.79794 0.21821,0.81898 0.15709,0.53268 0.29324,1.06191 0.51915,1.5706 0.6288,1.41591 -0.16646,-0.36039 0.33226,0.59466 0.006,0.0112 -0.0151,0.0202 -0.0227,0.0303 -2.0932,1.15063 -0.77698,0.0356 -1.02946,0.86967 -0.0121,0.04 -0.039,-0.0738 -0.0583,-0.11086 -0.22838,-0.43749 -0.44552,-0.88074 -0.58448,-1.35683 -0.20581,-0.77373 -0.37056,-1.48469 -0.10414,-2.28186 0.273,-0.81686 0.86689,-1.27951 1.61573,-1.63149 0.25797,-0.0825 0.50711,-0.20091 0.7739,-0.24763 1.58647,-0.2778 2.98718,-0.12001 4.30239,0.86265 0.28983,0.21654 0.53695,0.48503 0.80543,0.72755 0.22425,0.28364 0.47313,0.54944 0.67276,0.85092 0.63767,0.96306 1.21431,2.42858 0.30592,3.43299 -0.15964,0.17651 -0.40123,0.25608 -0.60185,0.38411 -0.35852,0.002 -0.71869,0.0394 -1.07554,0.005 -0.90258,-0.0874 -1.83923,-0.78511 -2.31166,-1.53258 -0.12744,-0.20162 -0.21078,-0.42795 -0.31617,-0.64192 -0.11728,-0.57548 -0.24597,-0.80414 -0.0301,-1.39098 0.32413,-0.8811 1.30147,-1.15078 2.1125,-1.3241 1.01215,-0.0386 1.51504,-0.11761 2.47159,0.0367 1.15684,0.18657 2.32818,0.6002 3.26093,1.32886 0.29138,0.22762 0.52732,0.51844 0.79098,0.77766 0.14091,0.332 0.3844,0.63737 0.42272,0.99599 0.23068,2.15862 -2.57877,2.4432 -4.05436,2.57526 -1.44706,-0.0326 -4.59564,0.17351 -4.89924,-1.89283 -0.0317,-0.21591 0.0652,-0.43155 0.0979,-0.64732 0.11379,-0.19218 0.1976,-0.40564 0.34138,-0.57655 0.69708,-0.82861 1.93304,-0.91278 2.92754,-0.89325 0.11838,-0.0304 0.54824,1.64379 0.42986,1.67419 z"
       inkscape:connector-curvature="0" />
    <path
       style="color:#000000;fill:#ffff99;fill-opacity:1;fill-rule:nonzero;stroke:none;stroke-width:6.30000019000000044;marker:none;visibility:visible;display:inline;overflow:visible;enable-background:accumulate;opacity:0.73020001"
       id="path4051"
       d="m 334.70673,249.5431 c -0.1304,-0.31421 -0.2678,-0.62483 -0.43222,-0.923 -0.0556,-0.10076 -0.10352,-0.20669 -0.17124,-0.29971 -0.0597,-0.0819 -0.13884,-0.14771 -0.20825,-0.22156 -0.24356,-0.18695 -0.51668,-0.23614 -0.81935,-0.2219 -0.0418,0.002 -0.0797,0.0268 -0.12113,0.0331 -1.18784,0.18172 0.34476,-0.0941 -0.92001,0.14244 -0.87694,0.21822 -1.69351,0.6447 -2.37909,1.23466 -0.12798,0.11012 -0.24382,0.23361 -0.36573,0.35042 -0.39046,0.43769 -0.66606,0.96163 -0.79996,1.53353 -0.0699,0.29859 -0.0684,0.4269 -0.0905,0.7254 -0.009,0.44876 0.094,0.88736 0.15324,1.32935 0.0508,0.37912 0.0452,0.38976 0.0704,0.76855 0.0447,0.40668 0.0787,0.91552 0.47951,1.1339 0.38823,0.14955 0.74573,0.36629 1.14272,0.49214 0.078,0.0202 0.15481,0.0455 0.23394,0.0605 0.0835,0.0159 0.16896,0.0187 0.25286,0.0321 0.36495,0.0583 0.7212,0.1424 1.08977,0.17686 0.17619,0.0331 0.62807,-0.0356 1.01037,-0.0734 0.73792,-0.0725 1.36588,-0.48736 1.97288,-0.87934 0.0594,-0.0515 0.78782,0.7886 0.72842,0.84011 l 0,0 c -0.75336,0.4428 -1.53409,0.89432 -2.42872,0.94274 -0.52942,-9.1e-4 -1.05555,0.0623 -1.5851,0.0483 -0.59641,-0.0579 -1.19358,-0.15756 -1.76006,-0.35814 -0.43529,-0.18169 -0.85958,-0.39709 -1.26926,-0.63 -0.0703,-0.0521 -0.14624,-0.0974 -0.21083,-0.15643 -0.43946,-0.40171 -0.58763,-0.99816 -0.63955,-1.56911 -0.0287,-0.35842 -0.0611,-0.71526 -0.11032,-1.07158 -0.0264,-0.19081 -0.084,-0.5355 -0.10213,-0.72522 -0.0129,-0.13462 -0.0167,-0.26995 -0.025,-0.40493 0.005,-0.14634 10e-4,-0.29327 0.0152,-0.43902 0.0866,-0.90042 0.44453,-1.73905 1.0187,-2.43565 0.13976,-0.14608 0.27098,-0.30084 0.41927,-0.43825 0.77662,-0.71964 1.73835,-1.21061 2.7626,-1.46222 0.90007,-0.16226 1.91727,-0.3329 2.74177,0.18194 0.13039,0.0814 0.23987,0.1923 0.3598,0.28845 0.0942,0.12013 0.19782,0.2335 0.28275,0.3604 0.30021,0.44859 0.46594,0.98806 0.5458,1.517 0.008,0.0595 -0.83324,0.177 -0.84155,0.1175 z"
       inkscape:connector-curvature="0" />
    <path
       style="color:#000000;fill:#ffff99;fill-opacity:1;fill-rule:nonzero;stroke:none;stroke-width:6.30000019000000044;marker:none;visibility:visible;display:inline;overflow:visible;enable-background:accumulate;opacity:0.73020001"
       id="path4053"
       d="m 338.69998,247.11 c 0.12836,0.97446 0.11556,1.96168 0.11873,2.94269 -0.003,0.97284 -0.0303,1.94529 -0.0538,2.91779 -0.004,0.11286 -0.008,0.2257 -0.0117,0.33858 -0.003,0.10257 4e-5,0.20543 -0.008,0.30776 -0.0258,0.34549 -0.11428,0.67932 -0.21487,1.00928 -0.0684,0.18527 -0.1759,0.37052 -0.14685,0.57273 0.006,0.0421 0.0123,0.0841 0.0179,0.12622 0.007,0.0549 0.0126,0.10995 0.0207,0.16468 0.005,0.0331 0.0424,0.12163 0.0181,0.0986 -0.0315,-0.0299 -0.003,-0.1077 -0.0436,-0.12283 -0.19317,-0.0717 -0.41203,-0.0504 -0.60692,-0.11731 0.23973,-0.68844 0.4732,-1.38169 0.78591,-2.04152 0.0841,-0.17739 0.17775,-0.35007 0.26662,-0.5251 0.35115,-0.62521 0.76731,-1.2273 1.29936,-1.71401 0.30152,-0.27582 0.40724,-0.3262 0.74055,-0.54335 0.48097,-0.27337 1.0145,-0.48952 1.58065,-0.42023 0.0592,0.007 0.10995,0.0462 0.16492,0.0693 0.18296,0.12301 0.38163,0.21612 0.52428,0.39177 0.0642,0.079 0.11233,0.16986 0.16849,0.25478 0.44178,0.84526 0.43532,1.81441 0.38943,2.74287 -0.0659,0.52837 -0.0655,1.1333 -0.23621,1.64397 -0.004,-0.0112 -0.007,-0.0223 -0.011,-0.0335 0.006,0.0574 -0.80629,0.14438 -0.81243,0.0869 l 0,0 c -0.006,-0.0292 -0.0119,-0.0585 -0.0179,-0.0877 -0.0805,-0.5442 0.0365,-1.10039 0.0351,-1.64581 0.0249,-0.76938 0.0842,-1.5705 -0.17227,-2.30995 -0.0569,-0.12404 -0.11586,-0.27212 -0.26696,-0.3095 -0.003,-7.3e-4 -10e-4,0.006 -0.002,0.009 0.0371,0.11296 -0.091,-0.25329 0.16214,0.0178 0.0315,0.0337 -0.0913,0.0142 -0.13628,0.0244 -0.25157,0.0565 -0.47674,0.17407 -0.69847,0.30359 -0.27131,0.17931 -0.34245,0.2122 -0.59113,0.43804 -0.46791,0.42492 -0.82218,0.94937 -1.12092,1.50272 -0.25013,0.481 -0.49266,0.96598 -0.72029,1.45815 -0.0649,0.14042 -0.12144,0.28468 -0.18761,0.42452 -0.11496,0.24296 -0.20183,0.39079 -0.32925,0.61903 -0.0713,0.0966 -0.0987,0.25601 -0.21387,0.28992 -0.79521,0.234 -0.8539,-0.22019 -0.86557,-0.75963 -2.1e-4,-0.27362 0.0294,-0.53554 0.12921,-0.79324 0.0539,-0.27202 0.12768,-0.54571 0.13505,-0.82455 0.003,-0.10258 -0.005,-0.20519 -0.008,-0.30776 -0.003,-0.11288 -0.008,-0.22572 -0.0117,-0.33858 -0.0234,-0.9725 -0.0511,-1.94495 -0.0537,-2.91779 0.003,-0.98101 -0.01,-1.96823 0.11873,-2.94269 0,-0.0611 0.86424,-0.0611 0.86424,0 z"
       inkscape:connector-curvature="0" />
    <path
       style="color:#000000;fill:#ffff99;fill-opacity:1;fill-rule:nonzero;stroke:none;stroke-width:6.30000019000000044;marker:none;visibility:visible;display:inline;overflow:visible;enable-background:accumulate;opacity:0.73020001"
       id="path4055"
       d="m 346.23341,253.00455 c 0.27339,-0.0412 0.55174,-0.0165 0.82612,-0.0341 0.005,-3.3e-4 3.4e-4,-0.0135 0.005,-0.0147 0.068,-0.0163 0.13781,-0.024 0.20671,-0.036 0.27361,-0.0646 0.49951,-0.20124 0.61053,-0.46521 -0.0383,-0.2662 -0.0118,-0.53208 0.033,-0.79576 -0.0122,-0.0896 -0.0987,-0.23609 -0.17064,-0.29777 -0.0281,-0.0241 -0.0624,-0.0399 -0.0936,-0.0599 -0.11344,-0.0789 -0.22887,-0.16969 -0.36662,-0.20251 -0.0387,-0.009 -0.15765,0.009 -0.11843,0.0154 0.0546,0.009 0.11093,9.1e-4 0.1664,0.001 -0.1642,0.0453 -0.36657,0.0754 -0.49563,0.19572 -0.0345,0.0321 -0.0634,0.0698 -0.0951,0.10466 -0.0346,0.0592 -0.0739,0.11586 -0.10397,0.1775 -0.1001,0.20549 -0.16807,0.41587 -0.23964,0.63285 -0.12673,0.3842 -0.24208,0.77047 -0.34585,1.1614 -0.10171,0.38877 -0.0666,0.6363 0.0381,1.00296 0.087,0.31706 0.27112,0.50785 0.49981,0.73009 0.10617,0.0717 0.22201,0.20107 0.36204,0.20915 0.0217,0.001 0.0832,-0.012 0.0625,-0.0184 -0.10089,-0.0316 -0.26469,0.002 -0.0908,-0.0269 0.44915,-0.17105 0.93088,-0.19716 1.39379,-0.31213 0.35187,-0.11582 0.18415,-0.0453 0.50413,-0.20934 0.0537,-0.0421 0.64862,0.71776 0.59489,0.75983 l 0,0 c -0.4437,0.24454 -0.21863,0.14207 -0.67323,0.31168 -0.31604,0.0806 -0.35123,0.10439 -0.66485,0.1305 -0.25529,0.0212 -0.51349,-0.005 -0.75806,0.0943 -0.0618,0.0194 -0.12097,0.0508 -0.18529,0.0582 -0.55935,0.0644 -0.87556,-0.0739 -1.27359,-0.4508 -0.27876,-0.30529 -0.50293,-0.63854 -0.60543,-1.04455 -0.18227,-0.48058 -0.25926,-0.8948 -0.1789,-1.41565 0.15438,-0.83439 0.41457,-1.65524 0.93509,-2.3379 0.17985,-0.1818 0.21693,-0.24739 0.44348,-0.36801 0.2633,-0.14018 0.0932,-0.0247 0.27881,-0.0774 0.0903,-0.0256 0.16841,-0.0865 0.26284,-0.10125 0.13199,-0.0132 0.26337,-0.0362 0.39597,-0.0395 0.36787,-0.009 0.69998,0.23237 0.95593,0.46689 0.25569,0.3022 0.42971,0.59397 0.42062,1.00393 -0.0139,0.15988 -0.0296,0.32164 -0.0247,0.48233 0.002,0.0748 0.0159,0.14942 0.0123,0.22417 -0.004,0.0834 -0.0232,0.16529 -0.0348,0.24793 -0.0239,0.0697 -0.0412,0.14189 -0.0716,0.20896 -0.19057,0.42097 -0.57161,0.69953 -0.99473,0.85541 -0.10509,0.0243 -0.20802,0.0613 -0.31526,0.0729 -0.4358,0.0469 -0.88341,0.0118 -1.31902,-0.0181 -0.0582,-0.0149 0.15301,-0.83733 0.21116,-0.8224 z"
       inkscape:connector-curvature="0" />
    <path
       style="color:#000000;fill:#ffff99;fill-opacity:1;fill-rule:nonzero;stroke:none;stroke-width:6.30000019000000044;marker:none;visibility:visible;display:inline;overflow:visible;enable-background:accumulate;opacity:0.73020001"
       id="path4057"
       d="m 350.55854,253.37304 c 0.60911,-0.26623 1.21972,-0.52922 1.8268,-0.80104 0.33405,-0.13018 0.67164,-0.25313 1.00027,-0.39688 0.14773,-0.0646 0.29902,-0.12897 0.41836,-0.23923 -0.0237,-0.01 -0.0272,0.0674 -0.0447,0.0748 -0.0509,0.0216 -0.31314,-0.14738 -0.35023,-0.16847 -0.14578,-0.0847 -0.28613,-0.17792 -0.4285,-0.26806 -0.002,-0.001 -0.13667,-0.0947 -0.16763,-0.10001 -0.009,-0.002 -0.0148,0.0115 -0.0222,0.0173 -0.007,0.008 -0.032,0.0216 -0.0215,0.0233 0.0565,0.009 0.11476,-0.004 0.17183,0.001 0.0211,0.002 -0.0423,0.004 -0.0631,0.008 -0.0361,0.007 -0.0713,0.0182 -0.10722,0.0264 -0.0703,0.0159 -0.14103,0.0296 -0.21154,0.0444 -0.27857,0.0771 -0.31149,0.37361 -0.37506,0.61447 -0.0808,0.5291 -0.28232,1.02595 -0.39508,1.54676 -0.027,0.34195 -0.0453,0.76429 0.0677,1.09267 0.024,0.0698 0.06,0.13485 0.09,0.20227 0.36433,0.53244 0.92774,0.69889 1.51622,0.8703 0.55223,0.1494 1.10712,0.10014 1.66607,0.044 0.51232,-0.0263 0.97285,-0.11741 1.45314,-0.29386 0.056,-0.0259 0.11203,-0.0519 0.16804,-0.0778 0.0508,-0.0401 0.61827,0.67885 0.56743,0.71898 l 0,0 c -0.0773,0.0462 -0.15464,0.0925 -0.23195,0.13875 -0.51866,0.22343 -1.06173,0.3618 -1.62526,0.40999 -0.82523,0.11927 -1.66526,0.17671 -2.47523,-0.0691 -0.13349,-0.0428 -0.2698,-0.0776 -0.40046,-0.1284 -0.66036,-0.25669 -1.21855,-0.68487 -1.53619,-1.32797 -0.0369,-0.10739 -0.0811,-0.21254 -0.11076,-0.32217 -0.12286,-0.45441 -0.1039,-0.94219 -0.0621,-1.40546 0.0958,-0.54727 0.2896,-1.06792 0.40643,-1.61076 0.16455,-0.55671 0.31615,-0.94476 0.88846,-1.17286 0.12112,-0.0357 0.23305,-0.0478 0.35519,-0.0739 0.20814,-0.0445 0.42437,-0.0863 0.63414,-0.0237 0.29579,0.11403 0.57259,0.26748 0.84169,0.43477 0.3534,0.23324 0.72316,0.52687 0.63733,1.00756 -0.0155,0.0869 -0.0598,0.16607 -0.0897,0.24911 -0.0522,0.07 -0.0974,0.1459 -0.15673,0.21 -0.37349,0.40348 -0.95037,0.55268 -1.43302,0.77329 -0.63995,0.2872 -1.28074,0.58476 -1.97662,0.70966 -0.0522,0.03 -0.47649,-0.7083 -0.42429,-0.7383 z"
       inkscape:connector-curvature="0" />
    <path
       style="color:#000000;fill:#ffff99;fill-opacity:1;fill-rule:nonzero;stroke:none;stroke-width:6.30000019000000044;marker:none;visibility:visible;display:inline;overflow:visible;enable-background:accumulate;opacity:0.73020001"
       id="path4059"
       d="m 359.17418,251.77338 c -0.49467,0.0759 -0.9571,0.27224 -1.405,0.48737 -0.37841,0.24828 -0.83448,0.47345 -1.05096,0.89069 -0.0576,0.17207 0.0236,0.33624 0.0761,0.49935 0.055,0.0708 0.0257,0.3474 0.0979,0.39239 0.0132,0.008 0.0312,4.3e-4 0.0467,6.5e-4 0.0322,0.0214 0.0645,0.0429 0.0967,0.0643 0.37417,0.19397 0.77891,0.31129 1.17146,0.46088 0.42328,0.18448 0.78261,0.47768 1.07877,0.82823 0.21854,0.33059 0.30165,0.65092 0.28297,1.04397 -0.0206,0.37905 -0.12958,0.59521 -0.37264,0.88126 -0.26758,0.29751 -0.51726,0.45617 -0.91377,0.52574 -0.12743,-0.004 -0.25486,-0.008 -0.38229,-0.0125 -0.0577,-0.0192 0.21412,-0.83473 0.27179,-0.81551 l 0,0 c -0.0521,0.002 -0.10414,0.004 -0.15621,0.006 0.21192,0.049 0.33043,-0.0805 0.47746,-0.21771 0.17017,-0.16095 0.18955,-0.13353 0.21162,-0.39792 0.005,-0.17831 -0.0187,-0.36182 -0.13573,-0.50458 -0.2418,-0.23684 -0.52949,-0.42696 -0.84397,-0.55236 -0.48142,-0.17476 -0.98063,-0.32819 -1.3702,-0.67769 -0.0504,-0.0544 -0.10734,-0.10349 -0.15124,-0.16331 -0.13943,-0.18996 -0.18569,-0.39334 -0.22792,-0.6172 -0.13645,-0.34406 -0.21476,-0.69403 -0.0931,-1.05829 0.0737,-0.17497 0.11256,-0.28906 0.22288,-0.45099 0.2701,-0.39644 0.68756,-0.66344 1.08545,-0.91408 0.55641,-0.27546 1.14092,-0.51499 1.77204,-0.52155 0.0582,-0.0149 0.26931,0.80747 0.21116,0.8224 z"
       inkscape:connector-curvature="0" />
    <path
       style="color:#000000;fill:#ffff99;fill-opacity:1;fill-rule:nonzero;stroke:none;stroke-width:6.30000019000000044;marker:none;visibility:visible;display:inline;overflow:visible;enable-background:accumulate;opacity:0.73020001"
       id="path4061"
       d="m 361.61299,253.98303 c 0.0566,-0.0175 0.11265,-0.0367 0.16974,-0.0525 0.18945,-0.0523 0.324,-0.075 0.51082,-0.13837 0.29085,-0.0986 0.56749,-0.23194 0.84277,-0.36651 0.167,-0.089 0.34228,-0.16935 0.49305,-0.28578 0.008,-0.006 -0.0269,0.0201 -0.0299,0.01 -0.0111,-0.0378 -0.006,-0.0785 -0.009,-0.11774 -0.0453,-0.26355 -0.0268,-0.53506 -0.0656,-0.7985 -0.003,0.003 -0.0102,0.005 -0.009,0.009 0.0101,0.0416 0.0274,0.0812 0.0408,0.12184 0.007,0.0227 1.9e-4,0.0582 0.0218,0.0682 0.12284,0.057 0.26671,-0.007 0.0779,0.0363 -0.0455,0.0105 -0.0901,0.0241 -0.13513,0.0362 -0.31219,0.077 -0.53095,0.31509 -0.75285,0.53247 -0.27341,0.30474 -0.53573,0.6368 -0.69567,1.01793 -0.0616,0.14675 -0.11825,0.38731 -0.15833,0.542 -0.0855,0.39713 0.036,0.78045 0.10953,1.16792 0.15388,0.39013 0.37328,0.75885 0.64955,1.07469 -0.0554,0.046 0.28978,0.17674 0.28507,0.0907 -0.002,-0.0311 -0.11567,-0.0185 -0.0878,-0.0325 0.0667,-0.0333 0.14754,-0.0213 0.22096,-0.0341 0.10005,-0.0175 0.19957,-0.0379 0.29936,-0.0568 0.4821,-0.0969 0.97662,-0.13949 1.45419,-0.25986 0.25552,-0.0644 0.35449,-0.11695 0.59817,-0.21924 0.0833,-0.0405 0.16661,-0.081 0.24991,-0.12143 0.0527,-0.0425 0.65402,0.70329 0.60128,0.74581 l 0,0 c -0.0987,0.061 -0.19747,0.122 -0.2962,0.183 -0.24913,0.11568 -0.47531,0.23053 -0.73947,0.31188 -0.48847,0.15044 -1.00909,0.18805 -1.51305,0.25139 -0.69868,0.0831 -1.26558,0.2151 -1.81486,-0.33181 -0.0598,-0.0648 -0.1243,-0.12571 -0.17954,-0.19452 -0.28981,-0.36103 -0.5018,-0.82842 -0.62235,-1.27227 -0.083,-0.4908 -0.24855,-0.97206 -0.157,-1.47736 0.0608,-0.31571 0.0683,-0.43056 0.19438,-0.74198 0.19513,-0.48218 0.52076,-0.89785 0.88921,-1.25877 0.33134,-0.26689 0.67144,-0.55368 1.07388,-0.70285 0.44873,-0.11078 0.87965,-0.22953 1.18139,0.22499 0.035,0.0527 0.0449,0.1182 0.0674,0.1773 0.0466,0.28959 0.0615,0.58454 0.0861,0.87665 0.004,0.1429 0.0149,0.30987 -0.0246,0.44686 -0.1024,0.35524 -0.4307,0.5604 -0.72072,0.74775 -0.19004,0.10174 -0.43499,0.23867 -0.63331,0.32034 -0.37214,0.15324 -0.76191,0.23994 -1.16243,0.26874 -0.0565,0.0219 -0.36689,-0.77708 -0.31039,-0.79903 z"
       inkscape:connector-curvature="0" />
    <path
       style="color:#000000;fill:#ffff99;fill-opacity:1;fill-rule:nonzero;stroke:none;stroke-width:6.30000019000000044;marker:none;visibility:visible;display:inline;overflow:visible;enable-background:accumulate;opacity:0.73020001"
       id="path4063"
       d="m 367.35791,254.09926 c 0.63565,-0.62902 1.32614,-1.19969 1.99884,-1.78811 0.49536,-0.45185 1.01544,-0.90692 1.34539,-1.49932 0.10078,-0.24091 0.0653,-0.50193 0.0888,-0.75498 0.0138,-0.14934 0.0561,-0.38839 0.0808,-0.53745 0.0894,-0.52985 0.15632,-1.06123 0.20124,-1.59674 0.002,-0.037 0.0116,-0.24757 0.009,-0.30259 -4e-4,-0.0101 -0.0113,-0.0389 -0.008,-0.0292 0.0805,0.26589 0.11472,0.23507 0.38366,0.24534 -0.22375,0.11037 -0.50658,0.13987 -0.68874,0.32534 -0.0533,0.0543 -0.0906,0.12227 -0.13595,0.18341 -0.46664,0.7493 -0.83298,1.55479 -1.20974,2.35145 -0.20221,0.47654 -0.45573,0.93306 -0.63148,1.42087 -0.0679,0.18852 -0.10109,0.33909 -0.15061,0.53356 -0.10653,0.4593 -0.14832,0.92599 -0.1412,1.39624 0.0351,0.20713 -0.0205,0.43911 0.0474,0.64145 0.0188,0.0559 0.0796,0.12516 0.11384,0.16906 0.32594,0.31699 0.62585,0.65413 0.90639,1.01175 0.21802,0.30852 0.39275,0.64649 0.56174,0.98378 0.0677,0.136 0.0269,0.0288 0.0309,-0.0103 9.4e-4,-0.009 0.022,-0.0221 0.013,-0.0247 -0.0475,-0.0137 -0.0985,-0.009 -0.14774,-0.0141 0.33022,-0.0467 0.66343,-0.0636 0.99234,-0.11878 0.37954,-0.0856 0.66056,-0.33909 0.91288,-0.62026 0.29639,-0.31356 0.27669,-0.57991 0.30979,-0.98393 0.0363,-0.28377 0.0717,-0.56494 0.0657,-0.85135 -0.004,-0.0455 0.0124,-0.29626 -0.0434,-0.33379 -0.0125,-0.008 -0.0254,0.017 -0.0396,0.022 -0.0106,0.004 -0.13215,0.0252 -0.13285,0.0253 -0.0387,0.0101 -0.0773,0.0201 -0.11603,0.0302 0.0157,0.002 0.0629,0.008 0.047,0.007 -0.15536,-0.007 -0.31147,-0.008 -0.46582,-0.027 -0.22706,-0.0281 -0.45093,-0.12585 -0.66165,-0.2097 -0.0772,-0.0259 -0.16575,-0.0593 -0.24732,-0.0748 -0.0223,-0.004 -0.0905,-0.007 -0.0678,-0.006 0.49257,0.0194 0.13117,-0.006 0.13107,0.0183 -0.33941,0.30698 -0.67012,0.62271 -1.01291,0.92671 0.0836,0.0787 -0.29832,0.14727 -0.23817,0.24277 0.003,0.005 0.0118,0.003 0.0166,0.007 0.0359,0.0258 0.0468,0.063 0.0693,0.10241 0.0191,0.0246 0.0381,0.0492 0.0572,0.0738 0.0285,0.0548 -0.74614,0.45754 -0.77462,0.40277 l 0,0 c -0.0316,-0.0543 -0.0632,-0.10865 -0.0948,-0.16297 -0.22803,-0.54283 -0.15366,-0.84248 0.24933,-1.26909 0.38265,-0.35418 0.77016,-0.70608 1.19466,-1.01009 0.0791,-0.0386 0.15506,-0.0844 0.23728,-0.11575 0.2776,-0.10585 0.65672,0.0196 0.93265,0.0947 0.1001,0.0288 0.23884,0.07 0.33934,0.0938 0.0544,0.0129 0.11383,0.01 0.16431,0.0339 0.0211,0.0101 -0.0927,0.0108 -0.0693,0.0114 0.64742,0.0164 0.22478,-0.0369 0.70678,0.0409 0.0802,0.032 0.16596,0.0527 0.24063,0.0961 0.36412,0.21172 0.47958,0.59662 0.46016,0.99317 -0.0145,0.28842 -0.0404,0.57568 -0.0556,0.86402 0.003,0.54037 -0.0681,1.07322 -0.43841,1.49588 -0.37976,0.42494 -0.75217,0.72431 -1.30046,0.90493 -0.0778,0.0192 -0.15446,0.0436 -0.23332,0.0577 -0.29354,0.0527 -0.59588,0.0234 -0.89116,0.0591 -0.1193,-0.002 -0.239,0.005 -0.3579,-0.005 -0.2406,-0.0199 -0.42504,-0.20117 -0.55151,-0.38996 -0.205,-0.28122 -0.36699,-0.58967 -0.57395,-0.86942 -0.29807,-0.37667 -0.64988,-0.70946 -0.92122,-1.10648 -0.0383,-0.0705 -0.0834,-0.13767 -0.11496,-0.21143 -0.13011,-0.30437 -0.12251,-0.64696 -0.16055,-0.96965 -0.0262,-0.54116 0.0105,-1.07886 0.12166,-1.6103 0.0222,-0.0954 0.12665,-0.55052 0.15046,-0.63128 0.15226,-0.51658 0.39331,-1.00252 0.59327,-1.50082 0.26196,-0.58697 0.12511,-0.2956 0.41142,-0.87548 0.2138,-0.43301 0.42585,-0.87765 0.69235,-1.28185 0.0864,-0.13103 0.18666,-0.25237 0.27998,-0.37855 0.10036,-0.10444 0.19089,-0.21929 0.30107,-0.31331 0.26947,-0.22992 0.61218,-0.28817 0.93347,-0.40513 0.14301,-0.0138 0.28698,-0.0629 0.42905,-0.0415 0.42909,0.0648 0.47833,0.58264 0.49105,0.91523 0.005,0.57647 -0.0912,1.14036 -0.20126,1.70489 -0.0199,0.10736 -0.0651,0.34186 -0.0795,0.45537 -0.0449,0.35317 -0.009,0.71584 -0.15196,1.05321 -0.0948,0.20743 -0.15268,0.35287 -0.2793,0.54754 -0.31174,0.47925 -0.71852,0.89191 -1.12064,1.29372 -0.69352,0.61859 -1.38947,1.24718 -2.19604,1.71748 -0.044,0.0429 -0.65027,-0.57944 -0.60626,-0.62231 z"
       inkscape:connector-curvature="0" />
    <path
       style="color:#000000;fill:#ffff99;fill-opacity:1;fill-rule:nonzero;stroke:none;stroke-width:6.30000019000000044;marker:none;visibility:visible;display:inline;overflow:visible;enable-background:accumulate;opacity:0.73020001"
       id="path4067"
       d="m 375.19592,253.39561 c 0.0123,0.69865 -0.0124,1.39721 -0.0267,2.09565 -0.0196,0.46808 -0.009,0.937 -0.0334,1.4049 -0.15619,-0.11963 -0.0138,0.14185 0.0144,0.11535 0.021,-0.0197 0.009,-0.0641 0.013,-0.0846 0.003,-0.017 0.0323,-0.0384 0.0183,-0.0485 -0.0358,-0.0258 -0.0859,-0.0207 -0.12881,-0.0311 0.46362,-0.0545 0.92634,-0.11788 1.36005,-0.29599 0.46241,-0.24971 0.56137,-0.58876 0.73315,-1.05244 0.1374,-0.40007 0.20743,-0.82402 0.19869,-1.24701 -0.0505,-0.31146 -0.0368,-0.61819 0.0353,-0.92412 0.10551,-0.40004 -0.0435,-0.56774 0.90506,0.0194 0.0935,0.0578 0.0248,0.21849 0.0327,0.32811 0.0105,0.14509 0.0149,0.29056 0.0224,0.43583 0.0545,0.7564 -0.0526,1.53904 0.14257,2.28173 0.0191,0.0727 0.0502,0.14169 0.0753,0.21254 0.0893,0.13215 0.21079,0.27933 0.37784,0.31415 0.0155,0.003 0.0623,-0.003 0.047,-0.006 -0.0609,-0.0155 -0.12423,-0.0193 -0.18635,-0.0289 0.0296,-0.005 0.0596,-0.007 0.0889,-0.0135 0.29235,-0.0631 0.0592,-0.0309 0.43572,-0.10483 0.37818,-0.0743 0.76222,-0.1008 1.14546,-0.13438 0.0681,-0.0217 0.37475,0.94138 0.30665,0.96306 l 0,0 c -0.58194,0.0283 -1.17217,-0.001 -1.74505,0.11947 -0.14032,-0.008 -0.28181,-0.003 -0.42095,-0.0231 -0.066,-0.009 -0.12852,-0.0371 -0.18981,-0.0635 -0.33094,-0.14242 -0.57324,-0.40813 -0.7533,-0.71357 -0.0488,-0.10607 -0.10618,-0.20859 -0.1463,-0.31822 -0.29221,-0.79844 -0.24364,-1.66124 -0.1962,-2.49396 0.0107,-0.14487 0.0184,-0.28999 0.0321,-0.43461 0.0102,-0.10753 -0.0571,-0.27292 0.0393,-0.32163 0.97268,-0.49143 0.89744,-0.29889 0.82713,0.12612 -0.0399,0.24946 -0.0251,0.49108 0.0144,0.74084 0.041,0.53267 -0.006,1.06695 -0.18068,1.57519 -0.25773,0.65134 -0.47751,1.14874 -1.09931,1.53414 -0.10015,0.0493 -0.19697,0.1061 -0.30045,0.14799 -0.4387,0.17759 -0.91089,0.18864 -1.37522,0.22979 -0.14821,-0.009 -0.29861,-10e-4 -0.44463,-0.0281 -0.36181,-0.067 -0.55747,-0.41432 -0.56484,-0.75413 -0.0539,-0.47552 -0.0824,-0.95325 -0.0993,-1.43143 -0.005,-0.73279 -4.5e-4,-1.47614 0.17474,-2.19209 0.007,-0.0602 0.85833,0.0417 0.85112,0.10193 z"
       inkscape:connector-curvature="0" />
    <path
       style="color:#000000;fill:#ffff99;fill-opacity:1;fill-rule:nonzero;stroke:none;stroke-width:6.30000019000000044;marker:none;visibility:visible;display:inline;overflow:visible;enable-background:accumulate;opacity:0.73020001"
       id="path4069"
       d="m 381.37855,253.71714 c 0.10998,0.80593 0.09,1.62305 0.0734,2.43423 -0.0116,0.33925 -0.0399,0.6759 -0.0935,1.01076 4e-5,0.0326 -0.0133,0.0942 0.004,0.12216 0.008,0.0126 0.0153,-0.0366 0.003,-0.0447 -0.16779,-0.10751 -0.3388,-0.21385 -0.52339,-0.28895 -0.0326,-0.0133 -0.0662,0.0237 -0.0993,0.0356 0.20442,-0.60637 0.38576,-1.22085 0.59776,-1.82496 0.16774,-0.41208 0.36578,-0.81248 0.71087,-1.10434 0.13011,-0.11003 0.23294,-0.15771 0.38025,-0.2393 0.066,-0.025 0.1309,-0.0531 0.19797,-0.0751 0.3317,-0.10876 0.54175,-0.0786 0.89212,-0.0832 0.0217,-2.8e-4 -0.0426,-0.008 -0.064,-0.0126 0.19877,-0.0153 0.0934,-0.006 0.31615,-0.0282 0.0592,-0.0211 0.35718,0.81575 0.29801,0.83682 l 0,0 c -0.24004,0.0286 -0.11011,0.0114 -0.38954,0.0533 -0.13895,-0.004 -0.27809,-0.003 -0.41685,-0.0111 -0.0324,-0.002 0.0966,0.0249 0.0972,-0.008 6.6e-4,-0.0325 -0.0644,-0.01 -0.0969,-0.0109 -0.10516,-0.005 -0.20005,0.0323 -0.30193,0.0519 -0.0663,0.0274 -0.27018,0.11394 -0.31485,0.16889 -0.1657,0.20384 -0.23039,0.50883 -0.34538,0.73788 -0.17177,0.50552 -0.325,1.01725 -0.54513,1.50483 -0.0508,0.1126 -0.0982,0.22747 -0.16111,0.33379 -0.0507,0.0857 -0.11887,0.15986 -0.17831,0.2398 -0.0865,0.0647 -0.15207,0.20424 -0.25966,0.19409 -0.48906,-0.0462 -0.59802,-0.1165 -0.6296,-0.42588 -0.004,-0.0392 0.0169,-0.0823 0.004,-0.12216 -0.0536,-0.33486 -0.082,-0.67151 -0.0935,-1.01076 -0.0166,-0.81118 -0.0366,-1.6283 0.0734,-2.43423 0,-0.0611 0.86424,-0.0611 0.86424,0 z"
       inkscape:connector-curvature="0" />
    <path
       style="color:#000000;fill:#ffff99;fill-opacity:1;fill-rule:nonzero;stroke:none;stroke-width:6.30000019000000044;marker:none;visibility:visible;display:inline;overflow:visible;enable-background:accumulate;opacity:0.73020001"
       id="path4071"
       d="m 387.03726,254.50702 c -0.19272,-0.20711 -0.32296,-0.30016 -0.6099,-0.26815 0.043,0.003 0.0876,-0.004 0.12904,0.008 0.0257,0.007 -0.0538,1.2e-4 -0.0799,0.006 -0.0308,0.007 -0.0603,0.0186 -0.0891,0.0313 -0.16193,0.0715 -0.31107,0.17349 -0.4595,0.26841 -0.24005,0.1612 -0.48707,0.34249 -0.63299,0.599 -0.0876,0.15398 -0.10442,0.2422 -0.15947,0.41542 -0.11331,0.39532 -0.1009,0.80677 -0.0394,1.20915 0.0673,0.19878 -1.4e-4,0.45456 0.1388,0.62395 0.11289,0.0894 0.16361,0.12377 0.30648,0.10053 0.0374,-0.006 0.0827,0.007 0.11262,-0.0162 0.0187,-0.0146 -0.046,-0.0118 -0.069,-0.0178 0.32103,-0.0235 0.62795,-0.11589 0.88659,-0.30979 0.13396,-0.14608 0.2752,-0.30899 0.27966,-0.51545 0.003,-0.39003 0.15446,-0.74502 0.30128,-1.0986 0.13608,-0.21674 0.26521,-0.49157 0.66286,-0.36601 0.19418,0.0613 0.2641,0.31622 0.34935,0.50115 0.0502,0.10888 0.0355,0.2373 0.0461,0.35673 0.0354,0.39891 0.027,0.5842 0.0291,0.99489 0.015,1.04951 -0.0665,2.09626 -0.11584,3.14373 -0.0365,0.57923 0.007,1.1589 0.0166,1.73831 0.005,0.50018 0.042,1.00307 -0.0238,1.50113 -0.0364,0.27582 -0.0759,0.38642 -0.1479,0.6491 -0.26225,0.66928 -0.60897,0.87471 -1.25505,1.12398 -0.49192,0.13578 -1.00163,0.28371 -1.5177,0.27775 -0.1807,-0.002 -0.3609,-0.0195 -0.54135,-0.0293 -0.10725,-0.0337 -0.21908,-0.0554 -0.32175,-0.10118 -0.66319,-0.29602 -0.96371,-0.96082 -1.258,-1.5775 -0.21991,-0.53483 -0.42025,-1.11164 -0.38922,-1.69978 0.004,-0.0745 0.0198,-0.1478 0.0297,-0.2217 0.0324,-0.0857 0.05,-0.17849 0.0973,-0.25697 0.3086,-0.51309 0.94512,-0.62924 1.48856,-0.68783 0.27605,-0.002 0.45342,-0.0133 0.74363,0.0416 0.0754,0.0142 0.14299,0.0555 0.21449,0.0832 0.0548,0.0299 -0.36725,0.80469 -0.42204,0.77485 l 0,0 c -0.35531,-0.0366 0.45201,0.0329 -0.22686,-0.008 -0.27324,0.0235 -0.23422,0.0155 -0.51627,0.0599 -0.0818,0.0129 -0.16337,0.027 -0.24471,0.0424 -0.0551,0.0104 -0.10856,0.0318 -0.16454,0.0351 -0.0204,10e-4 -0.038,-0.0149 -0.057,-0.0223 -0.009,0.002 -0.0186,0.004 -0.0279,0.006 -0.006,0.52419 0.22945,1.02427 0.41687,1.50198 0.14727,0.34635 0.35934,0.95296 0.74804,1.10234 0.0577,0.0222 0.12078,0.0268 0.18117,0.0402 -0.0787,0.0656 -0.0325,0.0219 0.2395,0.009 0.27266,-0.0125 0.53267,-0.0717 0.79801,-0.13176 0.0894,-0.0202 0.17859,-0.0416 0.26789,-0.0623 0.11218,-0.0263 0.58902,-0.15039 0.67289,-0.23233 0.0622,-0.0608 0.0959,-0.18852 0.12212,-0.26077 0.14128,-0.64267 0.12251,-1.29701 0.13224,-1.95165 0.001,-0.5814 0.0152,-1.16367 -0.0415,-1.74333 -0.0503,-1.05817 -0.0582,-2.11885 0.0391,-3.17503 0.0383,-0.51185 0.0308,-0.4671 0.0805,-0.94173 0.009,-0.084 -0.0526,-0.2297 0.0289,-0.25181 0.10765,-0.0292 0.17982,0.17267 0.2911,0.16503 0.40227,-0.0276 0.55306,-0.41158 0.42406,-0.12729 -0.12367,0.2789 -0.27327,0.55603 -0.28213,0.86756 -0.0497,0.40404 -0.19136,0.72531 -0.47562,1.02355 -0.0529,0.0511 -0.10213,0.10639 -0.15878,0.15334 -0.31708,0.26277 -0.72325,0.39283 -1.12682,0.43861 -0.1554,0.003 -0.3109,0.0148 -0.46621,0.009 -0.40326,-0.0157 -0.74294,-0.24876 -0.9468,-0.58632 -0.0264,-0.0566 -0.0573,-0.11131 -0.0793,-0.16974 -0.0795,-0.21057 -0.069,-0.44124 -0.14117,-0.65397 -0.13104,-0.53564 -0.15835,-1.07938 0.002,-1.61488 0.0713,-0.19946 0.13995,-0.41719 0.24327,-0.60372 0.20209,-0.36482 0.51445,-0.62563 0.85887,-0.8505 0.20889,-0.12188 0.7106,-0.41124 0.94494,-0.44023 0.14218,-0.0176 0.28623,-0.013 0.42935,-0.0194 0.0778,0.0124 0.15724,0.017 0.23337,0.0373 0.3782,0.10067 0.68318,0.35783 0.86284,0.7018 0.0263,0.0539 -0.73564,0.42566 -0.76193,0.37178 z"
       inkscape:connector-curvature="0" />
    <path
       style="color:#000000;fill:#ffff99;fill-opacity:1;fill-rule:nonzero;stroke:none;stroke-width:6.30000019000000044;marker:none;visibility:visible;display:inline;overflow:visible;enable-background:accumulate;opacity:0.73020001"
       id="path4073"
       d="m 389.48029,256.12221 c 0.48624,-0.0419 0.97491,-0.0501 1.46242,-0.0698 0.36926,-0.0151 0.6063,-0.0929 0.84858,-0.36974 0.12882,-0.20229 0.28809,-0.38608 0.36016,-0.61676 0.0127,-0.21669 0.0213,-0.44219 -0.03,-0.65456 -0.0619,-0.0405 0.03,0.13599 0.0404,0.14017 0.0663,0.0265 0.1454,0.002 0.21251,0.0261 0.0233,0.008 -0.0473,0.0153 -0.07,0.0255 -0.0382,0.0172 -0.0749,0.0377 -0.11236,0.0565 -0.0437,0.031 -0.0908,0.0577 -0.13111,0.093 -0.10537,0.0924 -0.1717,0.19732 -0.24915,0.3143 -0.17725,0.2677 -0.31678,0.54166 -0.44905,0.83372 -0.20313,0.519 -0.44837,1.03403 -0.5589,1.58335 -0.0297,0.2164 -0.0347,0.44685 0.0732,0.64266 0.0954,0.0815 0.18775,0.21967 0.32905,0.21017 0.0339,-0.002 0.0951,0.0126 0.0998,-0.021 0.005,-0.0317 -0.0625,-0.0142 -0.0938,-0.0213 0.46369,-0.0602 0.92079,-0.1505 1.38815,-0.18285 0.35303,-0.0228 0.76332,-0.0514 1.0299,-0.31372 0.0363,-0.0517 0.76827,0.46209 0.73194,0.51384 l 0,0 c -0.0585,0.0687 -0.11034,0.14363 -0.17548,0.20603 -0.34938,0.33464 -0.84667,0.46336 -1.31572,0.48508 -0.11557,0.004 -0.36683,0.01 -0.48254,0.0208 -0.31736,0.0296 -0.62795,0.10843 -0.94523,0.13823 -0.15824,-0.006 -0.31774,0.003 -0.47472,-0.0173 -0.41609,-0.0549 -0.72576,-0.3746 -0.91298,-0.7254 -0.1296,-0.33675 -0.17382,-0.69211 -0.14427,-1.05261 0.0178,-0.14581 0.0374,-0.32918 0.0672,-0.4711 0.0978,-0.46609 0.27034,-0.91965 0.46368,-1.35288 0.24836,-0.50747 0.55288,-1.08782 0.99799,-1.45367 0.0684,-0.0562 0.14774,-0.0976 0.22162,-0.14635 0.42567,-0.20836 0.91482,-0.3493 1.22992,0.12601 0.0374,0.0564 0.0553,0.12346 0.0829,0.18519 0.0704,0.33297 0.0887,0.67949 0.0137,1.01383 -0.0312,0.11386 -0.0499,0.1944 -0.0972,0.3071 -0.0863,0.20567 -0.23337,0.38272 -0.34495,0.57396 -0.34452,0.47729 -0.71532,0.71487 -1.3052,0.80229 -0.6557,0.0795 -1.31835,0.0709 -1.97538,0.008 -0.0592,-0.0152 0.15574,-0.85229 0.21493,-0.83709 z"
       inkscape:connector-curvature="0" />
    <path
       style="color:#000000;fill:#ffff99;fill-opacity:1;fill-rule:nonzero;stroke:none;stroke-width:6.30000019000000044;marker:none;visibility:visible;display:inline;overflow:visible;enable-background:accumulate;opacity:0.73020001"
       id="path4075"
       d="m 395.31112,254.87769 c 0.1838,0.72076 0.28877,1.4583 0.3628,2.19742 0.0565,0.67986 0.1832,1.35105 0.28209,2.02552 -0.003,0.009 2.4e-4,0.0266 -0.009,0.0269 -0.26115,0.008 -0.52323,0.0163 -0.78378,-0.003 -0.0811,-0.006 -0.13676,-0.93614 -0.14301,-1.00996 -0.0331,-0.53561 -0.0491,-1.07235 -0.0313,-1.60881 0.004,-0.1073 0.003,-0.215 0.0139,-0.32178 0.0109,-0.10397 0.0346,-0.20619 0.052,-0.30928 0.0384,-0.0992 0.0646,-0.20396 0.1151,-0.29754 0.21383,-0.39614 0.65072,-0.57469 1.0418,-0.74364 0.7085,-0.30565 1.47454,-0.29805 2.23056,-0.25273 0.4568,0.054 0.96584,0.0404 1.34459,0.34496 0.0671,0.054 0.11989,0.12382 0.17983,0.18573 0.15767,0.25425 0.0925,0.12685 0.20035,0.37965 0.021,0.0581 -0.8003,0.3554 -0.82133,0.29733 l 0,0 c -0.0456,-0.0976 -0.0203,-0.0543 -0.073,-0.13165 -0.21723,-0.17534 -0.84068,-0.10356 -1.11343,-0.14881 -0.4867,-0.0226 -0.98023,-0.0575 -1.45163,0.1 -0.58967,0.21119 0.19895,-0.0759 -0.40583,0.15989 -0.15429,0.0601 -0.26091,0.0352 -0.3202,0.21251 -0.0262,0.29532 -0.005,0.58524 0.003,0.88146 0.0105,0.40406 0.014,0.80834 0.0288,1.21231 0.004,0.32713 0.0228,0.66178 -0.008,0.98836 -0.008,0.087 0.043,0.22591 -0.0377,0.25957 -0.73152,0.30508 -0.69027,0.29166 -0.88643,-0.0235 -0.26016,-0.68066 -0.36104,-1.41852 -0.43546,-2.13917 -0.0626,-0.65651 -0.15842,-1.31561 -0.18225,-1.97517 -0.002,-0.063 0.004,-0.1261 0.006,-0.18915 -0.008,-0.0595 0.83324,-0.17701 0.84154,-0.1175 z"
       inkscape:connector-curvature="0" />
  </g>
</svg>
