<?xml version="1.0" encoding="UTF-8" standalone="no"?>
<!-- Created with Inkscape (http://www.inkscape.org/) -->

<svg
   xmlns:dc="http://purl.org/dc/elements/1.1/"
   xmlns:cc="http://creativecommons.org/ns#"
   xmlns:rdf="http://www.w3.org/1999/02/22-rdf-syntax-ns#"
   xmlns:svg="http://www.w3.org/2000/svg"
   xmlns="http://www.w3.org/2000/svg"
   xmlns:sodipodi="http://sodipodi.sourceforge.net/DTD/sodipodi-0.dtd"
   xmlns:inkscape="http://www.inkscape.org/namespaces/inkscape"
   width="744.09448819"
   height="1052.3622047"
   id="svg2"
   version="1.1"
   inkscape:version="0.48.4 r9939"
   sodipodi:docname="logo.svg"
   inkscape:export-filename="/var/www/datalets/sodacamp/images/logohd.png"
   inkscape:export-xdpi="84.980003"
   inkscape:export-ydpi="84.980003">
  <defs
     id="defs4" />
  <sodipodi:namedview
     id="base"
     pagecolor="#ffffff"
     bordercolor="#666666"
     borderopacity="1.0"
     inkscape:pageopacity="0.0"
     inkscape:pageshadow="2"
     inkscape:zoom="1.4"
     inkscape:cx="-58.906693"
     inkscape:cy="324.18524"
     inkscape:document-units="px"
     inkscape:current-layer="layer1"
     showgrid="false" />
  <metadata
     id="metadata7">
    <rdf:RDF>
      <cc:Work
         rdf:about="">
        <dc:format>image/svg+xml</dc:format>
        <dc:type
           rdf:resource="http://purl.org/dc/dcmitype/StillImage" />
        <dc:title></dc:title>
      </cc:Work>
    </rdf:RDF>
  </metadata>
  <g
     inkscape:label="Layer 1"
     inkscape:groupmode="layer"
     id="layer1">
    <rect
       style="color:#000000;fill:#eeeeee;fill-opacity:1;fill-rule:nonzero;stroke:none;stroke-width:6.30000019;marker:none;visibility:visible;display:inline;overflow:visible;enable-background:accumulate"
       id="rect3133"
       width="169.4467"
       height="169.4467"
       x="168.63271"
       y="626.35205" />
    <path
       inkscape:connector-curvature="0"
       id="path3054"
       style="font-size:51.67349625px;font-style:normal;font-variant:normal;font-weight:normal;font-stretch:normal;text-indent:0;text-align:center;text-decoration:none;line-height:125%;letter-spacing:0px;word-spacing:0px;text-transform:none;direction:ltr;block-progression:tb;writing-mode:lr-tb;text-anchor:middle;color:#000000;fill:#f44800;fill-opacity:1;fill-rule:nonzero;stroke:none;stroke-width:6.30000019;marker:none;visibility:visible;font-family:M3 Mono;-inkscape-font-specification:M3 Mono"
       d="m 189.73149,662.43427 0.69312,-0.73409 c 0.2455,-0.25997 0.5414,-0.39174 0.88772,-0.3953 0.3463,-0.003 0.64197,0.12233 0.88712,0.37711 l 2.48714,2.58711 c 0.24509,0.25496 0.36749,0.56421 0.36725,0.92768 -3.5e-4,0.3635 -0.12307,0.67527 -0.36855,0.93525 l -0.69317,0.7341 c -1.44409,1.52935 -2.10919,3.35361 -1.99532,5.47282 0.12825,2.13417 1.02141,4.06364 2.67952,5.78839 1.71585,1.66351 3.56934,2.5457 5.56056,2.64648 2.00556,0.11574 3.73038,-0.56075 5.17442,-2.02951 0.0432,-0.046 0.0866,-0.0916 0.12992,-0.13763 0.73644,-0.74971 1.24926,-1.55008 1.53855,-2.40119 0.31736,-0.8819 0.51347,-1.6334 0.58607,-2.2551 0.087,-0.60675 -0.13597,-1.53589 -0.66887,-2.78751 -0.51856,-1.26688 -0.90752,-2.12619 -1.16689,-2.5779 -0.25942,-0.45172 -0.89349,-1.52055 -1.90226,-3.20649 -0.10084,-0.1959 -0.18016,-0.33894 -0.23779,-0.42921 -1.77266,-2.87462 -2.62185,-5.75871 -2.54752,-8.65225 0.0887,-2.87854 1.29556,-5.54895 3.62054,-8.0112 1.2852,-1.3611 2.72165,-2.33754 4.30935,-2.92937 1.60208,-0.60707 3.17502,-0.82008 4.71888,-0.63905 1.55821,0.16581 3.06574,0.61235 4.52262,1.33946 1.45679,0.72722 2.76192,1.69072 3.9154,2.89051 2.58082,2.68463 3.92044,5.79086 4.01883,9.31874 0.12719,3.5276 -0.96445,6.51486 -3.27496,8.96179 l -0.58483,0.6194 c -0.24554,0.25998 -0.54147,0.39176 -0.88773,0.3953 -0.34634,0.003 -0.642,-0.12233 -0.8871,-0.37712 l -2.44388,-2.54211 c -0.24516,-0.25496 -0.36757,-0.56419 -0.36728,-0.9277 2.4e-4,-0.36345 0.12307,-0.67525 0.36856,-0.93524 l 0.58486,-0.61937 c 0.9386,-0.99408 1.46609,-2.09752 1.5825,-3.31037 0.14513,-1.21312 -0.005,-2.32476 -0.45205,-3.33493 -0.4466,-1.01018 -1.07359,-1.93519 -1.88096,-2.77509 -1.44187,-1.49974 -2.98519,-2.31693 -4.62999,-2.45155 -1.63046,-0.14987 -3.08103,0.43295 -4.35176,1.74848 -0.36111,0.41261 -0.66439,0.83982 -0.91002,1.28151 -0.23123,0.45676 -0.41906,0.88279 -0.56371,1.27802 -0.14441,0.39534 -0.22428,0.82773 -0.23953,1.29728 0.0141,0.4694 0.0282,0.87815 0.0424,1.22635 0.0142,0.34823 0.1004,0.77139 0.25875,1.26956 0.18722,0.49791 0.3312,0.89021 0.43202,1.17694 0.11519,0.30173 0.30968,0.71625 0.58347,1.2435 0.28817,0.51201 0.50433,0.88845 0.64846,1.12929 0.14408,0.24086 0.37469,0.63227 0.69176,1.17426 0.33141,0.55698 0.56201,0.93327 0.69177,1.12883 2.03199,3.35659 2.98913,6.58036 2.87142,9.67124 -0.0889,3.09057 -1.37526,5.9511 -3.85906,8.5816 -1.81956,1.92696 -3.91993,3.15254 -6.30117,3.67676 -2.38124,0.52417 -4.69706,0.38891 -6.94743,-0.40589 -2.236,-0.77981 -4.21905,-2.06958 -5.94923,-3.86928 -2.82594,-2.93956 -4.30241,-6.35487 -4.42936,-10.24596 -0.0982,-3.8914 1.13086,-7.19054 3.68704,-9.89744" />
    <path
       inkscape:connector-curvature="0"
       id="path3056"
       style="font-size:51.67349625px;font-style:normal;font-variant:normal;font-weight:normal;font-stretch:normal;text-indent:0;text-align:center;text-decoration:none;line-height:125%;letter-spacing:0px;word-spacing:0px;text-transform:none;direction:ltr;block-progression:tb;writing-mode:lr-tb;text-anchor:middle;color:#000000;fill:#f44800;fill-opacity:1;fill-rule:nonzero;stroke:none;stroke-width:6.30000019;marker:none;visibility:visible;font-family:M3 Mono;-inkscape-font-specification:M3 Mono"
       d="m 223.82544,685.51654 c 0.56296,-1.96922 1.43296,-4.30877 2.60981,-7.01866 1.17687,-2.7099 2.28124,-4.91645 3.31312,-6.61967 0.7072,-1.17989 1.59422,-2.1907 2.66105,-3.03249 1.06679,-0.84173 2.24757,-1.47485 3.54229,-1.89942 1.3011,-0.43933 2.73058,-0.59113 4.28845,-0.45544 1.57388,0.14368 3.14767,0.60152 4.72132,1.37375 2.98664,1.46565 5.11379,3.54241 6.38143,6.2303 1.27401,2.67311 1.47884,5.56666 0.61287,8.68094 -0.54372,1.92481 -1.37191,4.16811 -2.48442,6.72992 -0.0546,0.0811 -0.10133,0.16585 -0.13976,0.25475 -1.16405,2.6803 -2.26361,4.89818 -3.29867,6.65371 -0.94833,1.6005 -2.18561,2.87956 -3.71178,3.8372 -1.51021,0.96551 -3.28836,1.4941 -5.33455,1.58581 -2.02373,0.0847 -4.07932,-0.38506 -6.16676,-1.40942 -2.9867,-1.46563 -5.11705,-3.535 -6.39108,-6.20809 -1.26762,-2.68791 -1.46874,-5.58895 -0.60324,-8.70316 m 10.61974,-11.33352 c -1.05119,1.74765 -2.15878,3.96162 -3.32275,6.64187 -1.16403,2.6803 -2.03073,5.01246 -2.60019,6.99648 -0.41516,1.53879 -0.27925,3.08751 0.4075,4.64604 0.6931,1.54372 1.94692,2.76079 3.76143,3.65122 1.66995,0.81947 3.27915,1.06125 4.82758,0.72528 1.5709,-0.3429 2.84335,-1.25442 3.81732,-2.73452 1.08323,-1.73188 2.20689,-3.93797 3.37092,-6.61824 1.16396,-2.68029 2.01464,-5.02031 2.55201,-7.0201 0.42149,-1.55362 0.29042,-3.09097 -0.39305,-4.61203 -0.68357,-1.52103 -1.94541,-2.74203 -3.78553,-3.66304 -1.67,-0.81945 -3.30329,-1.07305 -4.89986,-0.76075 -1.58054,0.32026 -2.8257,1.23615 -3.73538,2.74779" />
    <path
       inkscape:connector-curvature="0"
       id="path3058"
       style="font-size:51.67349625px;font-style:normal;font-variant:normal;font-weight:normal;font-stretch:normal;text-indent:0;text-align:center;text-decoration:none;line-height:125%;letter-spacing:0px;word-spacing:0px;text-transform:none;direction:ltr;block-progression:tb;writing-mode:lr-tb;text-anchor:middle;color:#000000;fill:#f44800;fill-opacity:1;fill-rule:nonzero;stroke:none;stroke-width:6.30000019;marker:none;visibility:visible;font-family:M3 Mono;-inkscape-font-specification:M3 Mono"
       d="m 252.30662,723.03112 13.15352,-26.53562 c 0.1102,-0.22242 0.29309,-0.36815 0.54855,-0.43722 0.25544,-0.0689 0.50898,-0.0412 0.76062,0.0834 l 8.63663,4.27793 c 2.57542,1.27572 4.33014,3.14714 5.26416,5.61431 0.94876,2.47455 0.98928,4.99624 0.12157,7.5651 -0.5693,1.70629 -1.35661,3.5735 -2.36189,5.60162 -0.0472,0.0581 -0.0871,0.11982 -0.11945,0.18528 -1.04428,2.10662 -2.0786,3.93295 -3.10303,5.47896 -0.97909,1.45443 -2.19762,2.61096 -3.65561,3.46962 -1.45803,0.85864 -3.08143,1.32571 -4.87022,1.40122 -1.76755,0.0697 -3.50979,-0.32062 -5.22673,-1.17106 l -8.63663,-4.27792 c -0.25163,-0.12465 -0.42733,-0.30946 -0.52713,-0.55446 -0.0998,-0.24498 -0.0946,-0.4787 0.0157,-0.70114 m 6.02226,-1.27062 c -0.12973,0.26168 -0.0465,0.46585 0.24946,0.61249 l 4.77346,2.3644 c 1.34691,0.66717 2.74324,0.78838 4.18897,0.36367 1.44569,-0.42471 2.55802,-1.21826 3.33704,-2.38066 1.01976,-1.49943 2.0615,-3.32208 3.12522,-5.46797 1.06367,-2.14587 1.8834,-4.0785 2.45919,-5.79788 0.45331,-1.32367 0.41114,-2.68909 -0.12651,-4.09623 -0.5377,-1.40714 -1.48,-2.44427 -2.82691,-3.11146 l -4.77346,-2.3644 c -0.29604,-0.14661 -0.50892,-0.0891 -0.63863,0.17259 l -9.76783,19.70545" />
    <path
       inkscape:connector-curvature="0"
       id="path3060"
       style="font-size:51.67349625px;font-style:normal;font-variant:normal;font-weight:normal;font-stretch:normal;text-indent:0;text-align:center;text-decoration:none;line-height:125%;letter-spacing:0px;word-spacing:0px;text-transform:none;direction:ltr;block-progression:tb;writing-mode:lr-tb;text-anchor:middle;color:#000000;fill:#f44800;fill-opacity:1;fill-rule:nonzero;stroke:none;stroke-width:6.30000019;marker:none;visibility:visible;font-family:M3 Mono;-inkscape-font-specification:M3 Mono"
       d="m 282.2527,726.08062 23.63833,-32.47952 c 0.1354,-0.21118 0.35499,-0.35823 0.65871,-0.44124 0.30368,-0.083 0.62028,-0.0744 0.94956,0.0242 l 5.04641,1.5201 c 0.32932,0.0993 0.60095,0.26825 0.81484,0.50712 0.21385,0.23889 0.32367,0.4852 0.32942,0.73886 l 3.2521,40.57953 c 0.01,0.0606 0.005,0.12687 -0.0169,0.19835 -0.0552,0.1967 -0.2014,0.35607 -0.43951,0.47818 -0.30012,0.16159 -0.73249,0.15735 -1.29709,-0.0126 l -3.98768,-1.20116 c -0.32943,-0.0993 -0.60104,-0.26829 -0.81491,-0.50716 -0.21386,-0.2389 -0.32368,-0.48518 -0.32938,-0.73888 l -0.83359,-9.35149 c -0.006,-0.25371 -0.11799,-0.49108 -0.33688,-0.71204 -0.2189,-0.22102 -0.493,-0.38111 -0.82239,-0.48034 l -11.99832,-3.61416 c -0.32938,-0.0992 -0.64344,-0.11629 -0.94209,-0.0513 -0.29875,0.0651 -0.51582,0.20323 -0.65125,0.4144 l -5.51848,7.43813 c -0.13555,0.21117 -0.35501,0.35826 -0.65872,0.44123 -0.30372,0.083 -0.62031,0.0745 -0.94956,-0.0243 l -3.95244,-1.19056 c -0.54107,-0.16299 -0.89683,-0.39616 -1.06725,-0.69946 -0.1382,-0.23549 -0.19183,-0.45513 -0.16031,-0.6589 0.0202,-0.0718 0.0486,-0.13074 0.0875,-0.17713 m 16.35943,-10.91794 c -0.0482,0.0823 -0.0826,0.15924 -0.10256,0.23076 -0.0699,0.25031 0.0952,0.43573 0.49513,0.55617 l 8.96347,2.7 c 0.42345,0.12757 0.67011,0.0662 0.74001,-0.18413 0.0202,-0.0716 0.0313,-0.15535 0.0322,-0.252 l -0.45543,-16.73892 c -0.01,-0.2358 -0.0749,-0.37143 -0.19247,-0.4069 l -0.1411,-0.0425 c -0.11775,-0.0352 -0.2417,0.0437 -0.37211,0.23678 l -8.96681,13.90075" />
    <path
       style="color:#000000;fill:#f44800;fill-opacity:1;fill-rule:nonzero;stroke:none;stroke-width:6.30000019;marker:none;visibility:visible;display:inline;overflow:visible;enable-background:accumulate"
       id="path3045"
       d="m 177.61083,677.9533 c 0.93792,0.83655 1.87584,1.67313 2.81375,2.50966 1.6951,1.52905 3.38425,3.06919 5.08533,4.58715 7.85202,7.00678 10.35227,9.44399 19.42295,15.78045 14.17741,9.90385 21.03116,13.32688 36.29676,22.10138 26.52762,13.95161 53.74275,25.14384 81.3443,32.56733 13.81289,3.06464 5.26943,47.29558 -11.44896,37.5823 -20.13182,-6.59004 -40.54487,-16.38523 -59.67698,-27.77114 -8.33327,-4.95929 -16.34892,-10.87195 -24.52336,-16.30793 -6.64589,-5.41146 -13.46013,-10.48883 -19.9377,-16.23444 -13.48783,-11.96372 -22.41188,-18.93346 -31.32915,-36.39036 -3.03902,-4.15885 -2.06788,-17.39056 1.95306,-18.4244 z"
       inkscape:connector-curvature="0"
       sodipodi:nodetypes="ccsscccscscc" />
    <path
       style="color:#000000;fill:#f44800;fill-opacity:1;fill-rule:nonzero;stroke:none;stroke-width:6.30000019;marker:none;visibility:visible;display:inline;overflow:visible;enable-background:accumulate"
       id="path3051"
       d="m 223.55795,628.53245 c 5.69993,4.84694 11.33915,9.77395 17.68207,13.92025 2.31517,1.5134 4.73952,2.8793 7.10929,4.31895 9.60188,5.65937 19.89575,10.16173 30.34146,14.3086 7.94458,3.15395 16.64461,6.3556 24.76315,9.10763 3.9358,1.33417 7.91368,2.56019 11.87053,3.8403 14.00199,3.81663 7.20963,2.18931 20.35096,4.97394 1.11087,0.4372 -5.58977,14.93367 -6.70063,14.49647 l 0,0 c -15.17435,-1.99706 -7.42636,-0.64752 -23.21924,-4.16774 -4.27458,-1.26935 -8.59926,-2.40306 -12.82372,-3.80806 -16.77161,-5.57798 -33.04332,-12.9698 -47.56265,-22.55709 -2.90017,-1.91501 -5.62866,-4.04226 -8.44298,-6.06338 -2.29471,-1.89683 -4.6599,-3.72347 -6.88414,-5.69049 -5.41036,-4.78468 -10.76478,-10.2955 -13.96668,-16.62642 -0.28122,-0.55604 -0.4521,-1.15416 -0.67817,-1.73123 -0.33118,-0.53248 7.82958,-4.85421 8.16075,-4.32173 z"
       inkscape:connector-curvature="0" />
    <path
       style="color:#000000;fill:#f44800;fill-opacity:1;fill-rule:nonzero;stroke:none;stroke-width:6.30000019;marker:none;visibility:visible;display:inline;overflow:visible;enable-background:accumulate"
       id="path3076"
       d="m 233.89261,717.25695 c 1.78759,-2.39203 3.9656,-4.5825 6.13792,-6.75499 0.39231,-0.38543 0.78461,-0.77086 1.17692,-1.15629 0.1012,-0.13304 2.45196,1.01232 2.35078,1.14536 l 0,0 c -0.36703,0.41238 -0.73405,0.82476 -1.10106,1.23715 -2.145,2.18537 -4.29209,4.38177 -6.70968,6.38079 -0.0752,0.10497 -1.93015,-0.74704 -1.85488,-0.85202 z"
       inkscape:connector-curvature="0" />
    <path
       style="color:#000000;fill:#f44800;fill-opacity:1;fill-rule:nonzero;stroke:none;stroke-width:6.30000019;marker:none;visibility:visible;display:inline;overflow:visible;enable-background:accumulate"
       id="path3098"
       d="m 262.47186,685.68108 c 1.64654,-1.79832 3.27489,-3.6045 5.04076,-5.32986 0.89952,-0.82903 1.86506,-1.6481 3.05051,-2.21915 0.14361,-0.12092 2.28019,1.50466 2.13657,1.62557 l 0,0 c -0.25686,0.19898 -0.5389,0.36457 -0.79656,0.56327 -0.59106,0.45585 -1.03323,1.00867 -1.5382,1.52345 -2.96644,3.10538 1.35869,-1.41217 -1.81833,1.8707 -1.11724,1.15449 -2.1537,2.3831 -3.53627,3.35084 -0.12232,0.14368 -2.66083,-1.24115 -2.53848,-1.38482 z"
       inkscape:connector-curvature="0" />
    <path
       style="color:#000000;fill:#f44800;fill-opacity:1;fill-rule:nonzero;stroke:none;stroke-width:6.30000019;marker:none;visibility:visible;display:inline;overflow:visible;enable-background:accumulate"
       id="path3102"
       d="m 244.35517,704.95614 c 1.25014,-1.73519 2.68028,-3.38129 4.18972,-4.97727 0.61232,-0.58534 1.20179,-1.18655 1.83421,-1.75801 0.11957,-0.14189 2.62664,1.21138 2.50708,1.35326 l 0,0 c -0.55245,0.54662 -0.94039,1.16689 -1.44686,1.74078 -1.44535,1.70068 -2.88342,3.4151 -4.57442,4.96759 -0.1172,0.14204 -2.62691,-1.18431 -2.50973,-1.32635 z"
       inkscape:connector-curvature="0" />
    <path
       style="color:#000000;fill:#f44800;fill-opacity:1;fill-rule:nonzero;stroke:none;stroke-width:6.30000019;marker:none;visibility:visible;display:inline;overflow:visible;enable-background:accumulate"
       id="path3110"
       d="m 253.76422,695.12444 c 1.19151,-1.67563 2.69266,-3.18317 4.07407,-4.75571 0.68446,-0.788 0.3521,-0.40694 0.99673,-1.14337 0.10308,-0.15823 2.89904,1.00891 2.79593,1.16714 l 0,0 c -0.55941,0.7618 -0.26462,0.35303 -0.88083,1.22791 -0.69768,0.88422 -1.44769,1.71815 -2.22681,2.5575 -0.32648,0.35171 -1.19061,1.29989 -1.55755,1.65315 -0.18108,0.17434 -0.38556,0.33221 -0.57834,0.49831 -0.10645,0.14845 -2.72965,-1.05647 -2.6232,-1.20493 z"
       inkscape:connector-curvature="0" />
  </g>
</svg>
